<?xml version="1.0" encoding="utf-8"?>
<!-- Generator: Adobe Illustrator 19.0.0, SVG Export Plug-In . SVG Version: 6.00 Build 0)  -->
<svg version="1.1" id="Layer_1" xmlns="http://www.w3.org/2000/svg" xmlns:xlink="http://www.w3.org/1999/xlink" x="0px" y="0px"
	 viewBox="0 0 403 320" style="enable-background:new 0 0 403 320;" xml:space="preserve">
<style type="text/css">
	.st0{fill:#FFFFFF;}
</style>
<g id="XMLID_17_">
	<path id="XMLID_21_" class="st0" d="M27,44C12,44,0,56,0,71v222c0,15,12,27,27,27h349c15,0,27-12,27-27V71c0-15-12-27-27-27H276
		L254,4c-1-3-3-4-6-4h-93c-2,0-5,1-6,4l-22,40H27z M202,76c58,0,106,48,106,106s-48,106-106,106c-59,0-106-48-106-106S143,76,202,76
		z"/>
	<path id="XMLID_18_" class="st0" d="M202,100c-46,0-82,37-82,82s36,82,82,82c45,0,82-37,82-82S247,100,202,100z M202,119
		c11,0,11,17,0,17c-26,0-46,21-46,46c0,11-17,11-17,0C139,147,167,119,202,119z"/>
</g>
</svg>
