<?xml version="1.0" encoding="utf-8"?>
<!-- Generator: Adobe Illustrator 19.0.0, SVG Export Plug-In . SVG Version: 6.00 Build 0)  -->
<svg version="1.1" id="Layer_1" xmlns="http://www.w3.org/2000/svg" xmlns:xlink="http://www.w3.org/1999/xlink" x="0px" y="0px"
	 viewBox="0 0 768.8 587" style="enable-background:new 0 0 768.8 587;" xml:space="preserve">
<style type="text/css">
	.st0{fill:#878787;}
	.st1{fill:none;}
	.st2{fill:#ADC965;}
	.st3{fill:none;stroke:#ADC965;stroke-width:0;stroke-linecap:round;stroke-linejoin:round;}
	.st4{fill:none;stroke:#FFFFFF;stroke-width:0;stroke-linecap:round;stroke-linejoin:round;}
	.st5{fill:#FFFFFF;}
</style>
<g id="XMLID_1_">
	<g id="XMLID_753_">
		<path id="XMLID_867_" class="st0" d="M7.1,515.7c-2.1,0-3.8-0.7-5.1-2s-2-3-2-5.1c0-1.9,0.7-3.6,2-4.9c1.3-1.5,3-2.2,5.1-2.2
			c1.9,0,3.6,0.7,4.9,2.2c1.5,1.3,2.2,3,2.2,4.9c0,2.1-0.7,3.8-2.2,5.1C10.7,515.1,9.1,515.7,7.1,515.7z M7.1,530
			c-2.1,0-3.8-0.7-5.1-2s-2-3-2-5.1c0-1.9,0.7-3.6,2-4.9c1.3-1.5,3-2.2,5.1-2.2c1.9,0,3.6,0.7,4.9,2.2c1.5,1.3,2.2,3,2.2,4.9
			c0,2.1-0.7,3.8-2.2,5.1C10.7,529.3,9.1,530,7.1,530z M7.1,544.2c-2.1,0-3.8-0.7-5.1-2s-2-3-2-5.1c0-1.9,0.7-3.6,2-4.9
			c1.3-1.5,3-2.2,5.1-2.2c1.9,0,3.6,0.7,4.9,2.2c1.5,1.3,2.2,3,2.2,4.9c0,2.1-0.7,3.8-2.2,5.1C10.7,543.6,9.1,544.2,7.1,544.2z
			 M7.1,558.5c-2.1,0-3.8-0.7-5.1-2s-2-3-2-5.1c0-1.9,0.7-3.6,2-4.9c1.3-1.5,3-2.2,5.1-2.2c1.9,0,3.6,0.7,4.9,2.2
			c1.5,1.3,2.2,3,2.2,4.9c0,2.1-0.7,3.8-2.2,5.1C10.7,557.8,9.1,558.5,7.1,558.5z M7.1,572.7c-2.1,0-3.8-0.7-5.1-2s-2-3-2-5.1
			c0-1.9,0.7-3.6,2-4.9c1.3-1.5,3-2.2,5.1-2.2c1.9,0,3.6,0.7,4.9,2.2c1.5,1.3,2.2,3,2.2,4.9c0,2.1-0.7,3.8-2.2,5.1
			C10.7,572.1,9.1,572.7,7.1,572.7z M7.1,587c-2.1,0-3.8-0.7-5.1-2s-2-3-2-5.1c0-1.9,0.7-3.6,2-4.9c1.3-1.5,3-2.2,5.1-2.2
			c1.9,0,3.6,0.7,4.9,2.2c1.5,1.3,2.2,3,2.2,4.9c0,2.1-0.7,3.8-2.2,5.1C10.7,586.3,9.1,587,7.1,587z M21.4,501.5
			c-2.1,0-3.8-0.7-5.1-2s-2-3-2-5.1c0-1.9,0.7-3.6,2-4.9c1.3-1.5,3-2.2,5.1-2.2c1.9,0,3.6,0.7,4.9,2.2c1.5,1.3,2.2,3,2.2,4.9
			c0,2.1-0.7,3.8-2.2,5.1C24.9,500.8,23.3,501.5,21.4,501.5z M21.4,544.2c-2.1,0-3.8-0.7-5.1-2s-2-3-2-5.1c0-1.9,0.7-3.6,2-4.9
			c1.3-1.5,3-2.2,5.1-2.2c1.9,0,3.6,0.7,4.9,2.2c1.5,1.3,2.2,3,2.2,4.9c0,2.1-0.7,3.8-2.2,5.1C24.9,543.6,23.3,544.2,21.4,544.2z
			 M35.6,501.5c-2.1,0-3.8-0.7-5.1-2s-2-3-2-5.1c0-1.9,0.7-3.6,2-4.9c1.3-1.5,3-2.2,5.1-2.2c1.9,0,3.6,0.7,4.9,2.2
			c1.5,1.3,2.2,3,2.2,4.9c0,2.1-0.7,3.8-2.2,5.1C39.2,500.8,37.6,501.5,35.6,501.5z M35.6,544.2c-2.1,0-3.8-0.7-5.1-2s-2-3-2-5.1
			c0-1.9,0.7-3.6,2-4.9c1.3-1.5,3-2.2,5.1-2.2c1.9,0,3.6,0.7,4.9,2.2c1.5,1.3,2.2,3,2.2,4.9c0,2.1-0.7,3.8-2.2,5.1
			C39.2,543.6,37.6,544.2,35.6,544.2z M49.9,501.5c-2.1,0-3.8-0.7-5.1-2s-2-3-2-5.1c0-1.9,0.7-3.6,2-4.9c1.3-1.5,3-2.2,5.1-2.2
			c1.9,0,3.6,0.7,4.9,2.2c1.5,1.3,2.2,3,2.2,4.9c0,2.1-0.7,3.8-2.2,5.1C53.4,500.8,51.8,501.5,49.9,501.5z M49.9,544.2
			c-2.1,0-3.8-0.7-5.1-2s-2-3-2-5.1c0-1.9,0.7-3.6,2-4.9c1.3-1.5,3-2.2,5.1-2.2c1.9,0,3.6,0.7,4.9,2.2c1.5,1.3,2.2,3,2.2,4.9
			c0,2.1-0.7,3.8-2.2,5.1C53.4,543.6,51.8,544.2,49.9,544.2z M64.1,515.7c-2.1,0-3.8-0.7-5.1-2s-2-3-2-5.1c0-1.9,0.7-3.6,2-4.9
			c1.3-1.5,3-2.2,5.1-2.2c1.9,0,3.6,0.7,4.9,2.2c1.5,1.3,2.2,3,2.2,4.9c0,2.1-0.7,3.8-2.2,5.1C67.7,515.1,66.1,515.7,64.1,515.7z
			 M64.1,530c-2.1,0-3.8-0.7-5.1-2s-2-3-2-5.1c0-1.9,0.7-3.6,2-4.9c1.3-1.5,3-2.2,5.1-2.2c1.9,0,3.6,0.7,4.9,2.2
			c1.5,1.3,2.2,3,2.2,4.9c0,2.1-0.7,3.8-2.2,5.1C67.7,529.3,66.1,530,64.1,530z"/>
		<path id="XMLID_850_" class="st0" d="M92.6,515.7c-2.1,0-3.8-0.7-5.1-2s-2-3-2-5.1c0-1.9,0.7-3.6,2-4.9c1.3-1.5,3-2.2,5.1-2.2
			c1.9,0,3.6,0.7,4.9,2.2c1.5,1.3,2.2,3,2.2,4.9c0,2.1-0.7,3.8-2.2,5.1C96.2,515.1,94.6,515.7,92.6,515.7z M92.6,530
			c-2.1,0-3.8-0.7-5.1-2s-2-3-2-5.1c0-1.9,0.7-3.6,2-4.9c1.3-1.5,3-2.2,5.1-2.2c1.9,0,3.6,0.7,4.9,2.2c1.5,1.3,2.2,3,2.2,4.9
			c0,2.1-0.7,3.8-2.2,5.1C96.2,529.3,94.6,530,92.6,530z M92.6,558.5c-2.1,0-3.8-0.7-5.1-2s-2-3-2-5.1c0-1.9,0.7-3.6,2-4.9
			c1.3-1.5,3-2.2,5.1-2.2c1.9,0,3.6,0.7,4.9,2.2c1.5,1.3,2.2,3,2.2,4.9c0,2.1-0.7,3.8-2.2,5.1C96.2,557.8,94.6,558.5,92.6,558.5z
			 M92.6,572.7c-2.1,0-3.8-0.7-5.1-2s-2-3-2-5.1c0-1.9,0.7-3.6,2-4.9c1.3-1.5,3-2.2,5.1-2.2c1.9,0,3.6,0.7,4.9,2.2
			c1.5,1.3,2.2,3,2.2,4.9c0,2.1-0.7,3.8-2.2,5.1C96.2,572.1,94.6,572.7,92.6,572.7z M92.6,587c-2.1,0-3.8-0.7-5.1-2s-2-3-2-5.1
			c0-1.9,0.7-3.6,2-4.9c1.3-1.5,3-2.2,5.1-2.2c1.9,0,3.6,0.7,4.9,2.2c1.5,1.3,2.2,3,2.2,4.9c0,2.1-0.7,3.8-2.2,5.1
			C96.2,586.3,94.6,587,92.6,587z M106.9,501.5c-2.1,0-3.8-0.7-5.1-2s-2-3-2-5.1c0-1.9,0.7-3.6,2-4.9c1.3-1.5,3-2.2,5.1-2.2
			c1.9,0,3.6,0.7,4.9,2.2c1.5,1.3,2.2,3,2.2,4.9c0,2.1-0.7,3.8-2.2,5.1C110.4,500.8,108.8,501.5,106.9,501.5z M106.9,544.2
			c-2.1,0-3.8-0.7-5.1-2s-2-3-2-5.1c0-1.9,0.7-3.6,2-4.9c1.3-1.5,3-2.2,5.1-2.2c1.9,0,3.6,0.7,4.9,2.2c1.5,1.3,2.2,3,2.2,4.9
			c0,2.1-0.7,3.8-2.2,5.1C110.4,543.6,108.8,544.2,106.9,544.2z M121.1,501.5c-2.1,0-3.8-0.7-5.1-2s-2-3-2-5.1c0-1.9,0.7-3.6,2-4.9
			c1.3-1.5,3-2.2,5.1-2.2c1.9,0,3.6,0.7,4.9,2.2c1.5,1.3,2.2,3,2.2,4.9c0,2.1-0.7,3.8-2.2,5.1C124.7,500.8,123.1,501.5,121.1,501.5z
			 M121.1,558.5c-2.1,0-3.8-0.7-5.1-2s-2-3-2-5.1c0-1.9,0.7-3.6,2-4.9c1.3-1.5,3-2.2,5.1-2.2c1.9,0,3.6,0.7,4.9,2.2
			c1.5,1.3,2.2,3,2.2,4.9c0,2.1-0.7,3.8-2.2,5.1C124.7,557.8,123.1,558.5,121.1,558.5z M135.4,501.5c-2.1,0-3.8-0.7-5.1-2
			s-2-3-2-5.1c0-1.9,0.7-3.6,2-4.9c1.3-1.5,3-2.2,5.1-2.2c1.9,0,3.6,0.7,4.9,2.2c1.5,1.3,2.2,3,2.2,4.9c0,2.1-0.7,3.8-2.2,5.1
			C138.9,500.8,137.3,501.5,135.4,501.5z M135.4,544.2c-2.1,0-3.8-0.7-5.1-2s-2-3-2-5.1c0-1.9,0.7-3.6,2-4.9c1.3-1.5,3-2.2,5.1-2.2
			c1.9,0,3.6,0.7,4.9,2.2c1.5,1.3,2.2,3,2.2,4.9c0,2.1-0.7,3.8-2.2,5.1C138.9,543.6,137.3,544.2,135.4,544.2z M149.6,515.7
			c-2.1,0-3.8-0.7-5.1-2s-2-3-2-5.1c0-1.9,0.7-3.6,2-4.9c1.3-1.5,3-2.2,5.1-2.2c1.9,0,3.6,0.7,4.9,2.2c1.5,1.3,2.2,3,2.2,4.9
			c0,2.1-0.7,3.8-2.2,5.1C153.2,515.1,151.6,515.7,149.6,515.7z M149.6,530c-2.1,0-3.8-0.7-5.1-2s-2-3-2-5.1c0-1.9,0.7-3.6,2-4.9
			c1.3-1.5,3-2.2,5.1-2.2c1.9,0,3.6,0.7,4.9,2.2c1.5,1.3,2.2,3,2.2,4.9c0,2.1-0.7,3.8-2.2,5.1C153.2,529.3,151.6,530,149.6,530z
			 M149.6,558.5c-2.1,0-3.8-0.7-5.1-2s-2-3-2-5.1c0-1.9,0.7-3.6,2-4.9c1.3-1.5,3-2.2,5.1-2.2c1.9,0,3.6,0.7,4.9,2.2
			c1.5,1.3,2.2,3,2.2,4.9c0,2.1-0.7,3.8-2.2,5.1C153.2,557.8,151.6,558.5,149.6,558.5z M149.6,572.7c-2.1,0-3.8-0.7-5.1-2
			s-2-3-2-5.1c0-1.9,0.7-3.6,2-4.9c1.3-1.5,3-2.2,5.1-2.2c1.9,0,3.6,0.7,4.9,2.2c1.5,1.3,2.2,3,2.2,4.9c0,2.1-0.7,3.8-2.2,5.1
			C153.2,572.1,151.6,572.7,149.6,572.7z M149.6,587c-2.1,0-3.8-0.7-5.1-2s-2-3-2-5.1c0-1.9,0.7-3.6,2-4.9c1.3-1.5,3-2.2,5.1-2.2
			c1.9,0,3.6,0.7,4.9,2.2c1.5,1.3,2.2,3,2.2,4.9c0,2.1-0.7,3.8-2.2,5.1C153.2,586.3,151.6,587,149.6,587z"/>
		<path id="XMLID_834_" class="st0" d="M178.1,501.5c-2.1,0-3.8-0.7-5.1-2s-2-3-2-5.1c0-1.9,0.7-3.6,2-4.9c1.3-1.5,3-2.2,5.1-2.2
			c1.9,0,3.6,0.7,4.9,2.2c1.5,1.3,2.2,3,2.2,4.9c0,2.1-0.7,3.8-2.2,5.1C181.7,500.8,180.1,501.5,178.1,501.5z M178.1,530
			c-2.1,0-3.8-0.7-5.1-2s-2-3-2-5.1c0-1.9,0.7-3.6,2-4.9c1.3-1.5,3-2.2,5.1-2.2c1.9,0,3.6,0.7,4.9,2.2c1.5,1.3,2.2,3,2.2,4.9
			c0,2.1-0.7,3.8-2.2,5.1C181.7,529.3,180.1,530,178.1,530z M178.1,544.2c-2.1,0-3.8-0.7-5.1-2s-2-3-2-5.1c0-1.9,0.7-3.6,2-4.9
			c1.3-1.5,3-2.2,5.1-2.2c1.9,0,3.6,0.7,4.9,2.2c1.5,1.3,2.2,3,2.2,4.9c0,2.1-0.7,3.8-2.2,5.1C181.7,543.6,180.1,544.2,178.1,544.2z
			 M178.1,558.5c-2.1,0-3.8-0.7-5.1-2s-2-3-2-5.1c0-1.9,0.7-3.6,2-4.9c1.3-1.5,3-2.2,5.1-2.2c1.9,0,3.6,0.7,4.9,2.2
			c1.5,1.3,2.2,3,2.2,4.9c0,2.1-0.7,3.8-2.2,5.1C181.7,557.8,180.1,558.5,178.1,558.5z M178.1,572.7c-2.1,0-3.8-0.7-5.1-2
			s-2-3-2-5.1c0-1.9,0.7-3.6,2-4.9c1.3-1.5,3-2.2,5.1-2.2c1.9,0,3.6,0.7,4.9,2.2c1.5,1.3,2.2,3,2.2,4.9c0,2.1-0.7,3.8-2.2,5.1
			C181.7,572.1,180.1,572.7,178.1,572.7z M178.1,587c-2.1,0-3.8-0.7-5.1-2s-2-3-2-5.1c0-1.9,0.7-3.6,2-4.9c1.3-1.5,3-2.2,5.1-2.2
			c1.9,0,3.6,0.7,4.9,2.2c1.5,1.3,2.2,3,2.2,4.9c0,2.1-0.7,3.8-2.2,5.1C181.7,586.3,180.1,587,178.1,587z M192.4,515.7
			c-2.1,0-3.8-0.7-5.1-2s-2-3-2-5.1c0-1.9,0.7-3.6,2-4.9c1.3-1.5,3-2.2,5.1-2.2c1.9,0,3.6,0.7,4.9,2.2c1.5,1.3,2.2,3,2.2,4.9
			c0,2.1-0.7,3.8-2.2,5.1C195.9,515.1,194.3,515.7,192.4,515.7z M206.6,530c-2.1,0-3.8-0.7-5.1-2s-2-3-2-5.1c0-1.9,0.7-3.6,2-4.9
			c1.3-1.5,3-2.2,5.1-2.2c1.9,0,3.6,0.7,4.9,2.2c1.5,1.3,2.2,3,2.2,4.9c0,2.1-0.7,3.8-2.2,5.1C210.2,529.3,208.6,530,206.6,530z
			 M220.9,544.2c-2.1,0-3.8-0.7-5.1-2s-2-3-2-5.1c0-1.9,0.7-3.6,2-4.9c1.3-1.5,3-2.2,5.1-2.2c1.9,0,3.6,0.7,4.9,2.2
			c1.5,1.3,2.2,3,2.2,4.9c0,2.1-0.7,3.8-2.2,5.1C224.4,543.6,222.8,544.2,220.9,544.2z M235.1,501.5c-2.1,0-3.8-0.7-5.1-2
			s-2-3-2-5.1c0-1.9,0.7-3.6,2-4.9c1.3-1.5,3-2.2,5.1-2.2c1.9,0,3.6,0.7,4.9,2.2c1.5,1.3,2.2,3,2.2,4.9c0,2.1-0.7,3.8-2.2,5.1
			C238.7,500.8,237.1,501.5,235.1,501.5z M235.1,515.7c-2.1,0-3.8-0.7-5.1-2s-2-3-2-5.1c0-1.9,0.7-3.6,2-4.9c1.3-1.5,3-2.2,5.1-2.2
			c1.9,0,3.6,0.7,4.9,2.2c1.5,1.3,2.2,3,2.2,4.9c0,2.1-0.7,3.8-2.2,5.1C238.7,515.1,237.1,515.7,235.1,515.7z M235.1,530
			c-2.1,0-3.8-0.7-5.1-2s-2-3-2-5.1c0-1.9,0.7-3.6,2-4.9c1.3-1.5,3-2.2,5.1-2.2c1.9,0,3.6,0.7,4.9,2.2c1.5,1.3,2.2,3,2.2,4.9
			c0,2.1-0.7,3.8-2.2,5.1C238.7,529.3,237.1,530,235.1,530z M235.1,558.5c-2.1,0-3.8-0.7-5.1-2s-2-3-2-5.1c0-1.9,0.7-3.6,2-4.9
			c1.3-1.5,3-2.2,5.1-2.2c1.9,0,3.6,0.7,4.9,2.2c1.5,1.3,2.2,3,2.2,4.9c0,2.1-0.7,3.8-2.2,5.1C238.7,557.8,237.1,558.5,235.1,558.5z
			 M235.1,572.7c-2.1,0-3.8-0.7-5.1-2s-2-3-2-5.1c0-1.9,0.7-3.6,2-4.9c1.3-1.5,3-2.2,5.1-2.2c1.9,0,3.6,0.7,4.9,2.2
			c1.5,1.3,2.2,3,2.2,4.9c0,2.1-0.7,3.8-2.2,5.1C238.7,572.1,237.1,572.7,235.1,572.7z M235.1,587c-2.1,0-3.8-0.7-5.1-2s-2-3-2-5.1
			c0-1.9,0.7-3.6,2-4.9c1.3-1.5,3-2.2,5.1-2.2c1.9,0,3.6,0.7,4.9,2.2c1.5,1.3,2.2,3,2.2,4.9c0,2.1-0.7,3.8-2.2,5.1
			C238.7,586.3,237.1,587,235.1,587z"/>
		<path id="XMLID_823_" class="st0" d="M263.6,501.5c-2.1,0-3.8-0.7-5.1-2s-2-3-2-5.1c0-1.9,0.7-3.6,2-4.9c1.3-1.5,3-2.2,5.1-2.2
			c1.9,0,3.6,0.7,4.9,2.2c1.5,1.3,2.2,3,2.2,4.9c0,2.1-0.7,3.8-2.2,5.1C267.2,500.8,265.6,501.5,263.6,501.5z M277.9,501.5
			c-2.1,0-3.8-0.7-5.1-2s-2-3-2-5.1c0-1.9,0.7-3.6,2-4.9c1.3-1.5,3-2.2,5.1-2.2c1.9,0,3.6,0.7,4.9,2.2c1.5,1.3,2.2,3,2.2,4.9
			c0,2.1-0.7,3.8-2.2,5.1C281.4,500.8,279.8,501.5,277.9,501.5z M292.1,515.7c-2.1,0-3.8-0.7-5.1-2s-2-3-2-5.1c0-1.9,0.7-3.6,2-4.9
			c1.3-1.5,3-2.2,5.1-2.2c1.9,0,3.6,0.7,4.9,2.2c1.5,1.3,2.2,3,2.2,4.9c0,2.1-0.7,3.8-2.2,5.1C295.7,515.1,294.1,515.7,292.1,515.7z
			 M292.1,530c-2.1,0-3.8-0.7-5.1-2s-2-3-2-5.1c0-1.9,0.7-3.6,2-4.9c1.3-1.5,3-2.2,5.1-2.2c1.9,0,3.6,0.7,4.9,2.2
			c1.5,1.3,2.2,3,2.2,4.9c0,2.1-0.7,3.8-2.2,5.1C295.7,529.3,294.1,530,292.1,530z M292.1,544.2c-2.1,0-3.8-0.7-5.1-2s-2-3-2-5.1
			c0-1.9,0.7-3.6,2-4.9c1.3-1.5,3-2.2,5.1-2.2c1.9,0,3.6,0.7,4.9,2.2c1.5,1.3,2.2,3,2.2,4.9c0,2.1-0.7,3.8-2.2,5.1
			C295.7,543.6,294.1,544.2,292.1,544.2z M292.1,558.5c-2.1,0-3.8-0.7-5.1-2s-2-3-2-5.1c0-1.9,0.7-3.6,2-4.9c1.3-1.5,3-2.2,5.1-2.2
			c1.9,0,3.6,0.7,4.9,2.2c1.5,1.3,2.2,3,2.2,4.9c0,2.1-0.7,3.8-2.2,5.1C295.7,557.8,294.1,558.5,292.1,558.5z M292.1,572.7
			c-2.1,0-3.8-0.7-5.1-2s-2-3-2-5.1c0-1.9,0.7-3.6,2-4.9c1.3-1.5,3-2.2,5.1-2.2c1.9,0,3.6,0.7,4.9,2.2c1.5,1.3,2.2,3,2.2,4.9
			c0,2.1-0.7,3.8-2.2,5.1C295.7,572.1,294.1,572.7,292.1,572.7z M292.1,587c-2.1,0-3.8-0.7-5.1-2s-2-3-2-5.1c0-1.9,0.7-3.6,2-4.9
			c1.3-1.5,3-2.2,5.1-2.2c1.9,0,3.6,0.7,4.9,2.2c1.5,1.3,2.2,3,2.2,4.9c0,2.1-0.7,3.8-2.2,5.1C295.7,586.3,294.1,587,292.1,587z
			 M306.4,501.5c-2.1,0-3.8-0.7-5.1-2s-2-3-2-5.1c0-1.9,0.7-3.6,2-4.9c1.3-1.5,3-2.2,5.1-2.2c1.9,0,3.6,0.7,4.9,2.2
			c1.5,1.3,2.2,3,2.2,4.9c0,2.1-0.7,3.8-2.2,5.1C309.9,500.8,308.3,501.5,306.4,501.5z M320.6,501.5c-2.1,0-3.8-0.7-5.1-2
			s-2-3-2-5.1c0-1.9,0.7-3.6,2-4.9c1.3-1.5,3-2.2,5.1-2.2c1.9,0,3.6,0.7,4.9,2.2c1.5,1.3,2.2,3,2.2,4.9c0,2.1-0.7,3.8-2.2,5.1
			C324.2,500.8,322.6,501.5,320.6,501.5z"/>
		<path id="XMLID_807_" class="st0" d="M349.1,515.7c-2.1,0-3.8-0.7-5.1-2s-2-3-2-5.1c0-1.9,0.7-3.6,2-4.9c1.3-1.5,3-2.2,5.1-2.2
			c1.9,0,3.6,0.7,4.9,2.2c1.5,1.3,2.2,3,2.2,4.9c0,2.1-0.7,3.8-2.2,5.1C352.7,515.1,351.1,515.7,349.1,515.7z M349.1,530
			c-2.1,0-3.8-0.7-5.1-2s-2-3-2-5.1c0-1.9,0.7-3.6,2-4.9c1.3-1.5,3-2.2,5.1-2.2c1.9,0,3.6,0.7,4.9,2.2c1.5,1.3,2.2,3,2.2,4.9
			c0,2.1-0.7,3.8-2.2,5.1C352.7,529.3,351.1,530,349.1,530z M349.1,558.5c-2.1,0-3.8-0.7-5.1-2s-2-3-2-5.1c0-1.9,0.7-3.6,2-4.9
			c1.3-1.5,3-2.2,5.1-2.2c1.9,0,3.6,0.7,4.9,2.2c1.5,1.3,2.2,3,2.2,4.9c0,2.1-0.7,3.8-2.2,5.1C352.7,557.8,351.1,558.5,349.1,558.5z
			 M349.1,572.7c-2.1,0-3.8-0.7-5.1-2s-2-3-2-5.1c0-1.9,0.7-3.6,2-4.9c1.3-1.5,3-2.2,5.1-2.2c1.9,0,3.6,0.7,4.9,2.2
			c1.5,1.3,2.2,3,2.2,4.9c0,2.1-0.7,3.8-2.2,5.1C352.7,572.1,351.1,572.7,349.1,572.7z M349.1,587c-2.1,0-3.8-0.7-5.1-2s-2-3-2-5.1
			c0-1.9,0.7-3.6,2-4.9c1.3-1.5,3-2.2,5.1-2.2c1.9,0,3.6,0.7,4.9,2.2c1.5,1.3,2.2,3,2.2,4.9c0,2.1-0.7,3.8-2.2,5.1
			C352.7,586.3,351.1,587,349.1,587z M363.4,501.5c-2.1,0-3.8-0.7-5.1-2s-2-3-2-5.1c0-1.9,0.7-3.6,2-4.9c1.3-1.5,3-2.2,5.1-2.2
			c1.9,0,3.6,0.7,4.9,2.2c1.5,1.3,2.2,3,2.2,4.9c0,2.1-0.7,3.8-2.2,5.1C366.9,500.8,365.3,501.5,363.4,501.5z M363.4,544.2
			c-2.1,0-3.8-0.7-5.1-2s-2-3-2-5.1c0-1.9,0.7-3.6,2-4.9c1.3-1.5,3-2.2,5.1-2.2c1.9,0,3.6,0.7,4.9,2.2c1.5,1.3,2.2,3,2.2,4.9
			c0,2.1-0.7,3.8-2.2,5.1C366.9,543.6,365.3,544.2,363.4,544.2z M377.6,501.5c-2.1,0-3.8-0.7-5.1-2s-2-3-2-5.1c0-1.9,0.7-3.6,2-4.9
			c1.3-1.5,3-2.2,5.1-2.2c1.9,0,3.6,0.7,4.9,2.2c1.5,1.3,2.2,3,2.2,4.9c0,2.1-0.7,3.8-2.2,5.1C381.2,500.8,379.6,501.5,377.6,501.5z
			 M377.6,558.5c-2.1,0-3.8-0.7-5.1-2s-2-3-2-5.1c0-1.9,0.7-3.6,2-4.9c1.3-1.5,3-2.2,5.1-2.2c1.9,0,3.6,0.7,4.9,2.2
			c1.5,1.3,2.2,3,2.2,4.9c0,2.1-0.7,3.8-2.2,5.1C381.2,557.8,379.6,558.5,377.6,558.5z M391.9,501.5c-2.1,0-3.8-0.7-5.1-2
			s-2-3-2-5.1c0-1.9,0.7-3.6,2-4.9c1.3-1.5,3-2.2,5.1-2.2c1.9,0,3.6,0.7,4.9,2.2c1.5,1.3,2.2,3,2.2,4.9c0,2.1-0.7,3.8-2.2,5.1
			C395.4,500.8,393.8,501.5,391.9,501.5z M391.9,544.2c-2.1,0-3.8-0.7-5.1-2s-2-3-2-5.1c0-1.9,0.7-3.6,2-4.9c1.3-1.5,3-2.2,5.1-2.2
			c1.9,0,3.6,0.7,4.9,2.2c1.5,1.3,2.2,3,2.2,4.9c0,2.1-0.7,3.8-2.2,5.1C395.4,543.6,393.8,544.2,391.9,544.2z M391.9,572.7
			c-2.1,0-3.8-0.7-5.1-2s-2-3-2-5.1c0-1.9,0.7-3.6,2-4.9c1.3-1.5,3-2.2,5.1-2.2c1.9,0,3.6,0.7,4.9,2.2c1.5,1.3,2.2,3,2.2,4.9
			c0,2.1-0.7,3.8-2.2,5.1C395.4,572.1,393.8,572.7,391.9,572.7z M406.1,515.7c-2.1,0-3.8-0.7-5.1-2s-2-3-2-5.1c0-1.9,0.7-3.6,2-4.9
			c1.3-1.5,3-2.2,5.1-2.2c1.9,0,3.6,0.7,4.9,2.2c1.5,1.3,2.2,3,2.2,4.9c0,2.1-0.7,3.8-2.2,5.1C409.7,515.1,408.1,515.7,406.1,515.7z
			 M406.1,530c-2.1,0-3.8-0.7-5.1-2s-2-3-2-5.1c0-1.9,0.7-3.6,2-4.9c1.3-1.5,3-2.2,5.1-2.2c1.9,0,3.6,0.7,4.9,2.2
			c1.5,1.3,2.2,3,2.2,4.9c0,2.1-0.7,3.8-2.2,5.1C409.7,529.3,408.1,530,406.1,530z M406.1,587c-2.1,0-3.8-0.7-5.1-2s-2-3-2-5.1
			c0-1.9,0.7-3.6,2-4.9c1.3-1.5,3-2.2,5.1-2.2c1.9,0,3.6,0.7,4.9,2.2c1.5,1.3,2.2,3,2.2,4.9c0,2.1-0.7,3.8-2.2,5.1
			C409.7,586.3,408.1,587,406.1,587z"/>
		<path id="XMLID_797_" class="st0" d="M434.6,501.5c-2.1,0-3.8-0.7-5.1-2s-2-3-2-5.1c0-1.9,0.7-3.6,2-4.9c1.3-1.5,3-2.2,5.1-2.2
			c1.9,0,3.6,0.7,4.9,2.2c1.5,1.3,2.2,3,2.2,4.9c0,2.1-0.7,3.8-2.2,5.1C438.2,500.8,436.6,501.5,434.6,501.5z M448.9,515.7
			c-2.1,0-3.8-0.7-5.1-2s-2-3-2-5.1c0-1.9,0.7-3.6,2-4.9c1.3-1.5,3-2.2,5.1-2.2c1.9,0,3.6,0.7,4.9,2.2c1.5,1.3,2.2,3,2.2,4.9
			c0,2.1-0.7,3.8-2.2,5.1C452.4,515.1,450.8,515.7,448.9,515.7z M463.1,530c-2.1,0-3.8-0.7-5.1-2s-2-3-2-5.1c0-1.9,0.7-3.6,2-4.9
			c1.3-1.5,3-2.2,5.1-2.2c1.9,0,3.6,0.7,4.9,2.2c1.5,1.3,2.2,3,2.2,4.9c0,2.1-0.7,3.8-2.2,5.1C466.7,529.3,465.1,530,463.1,530z
			 M463.1,544.2c-2.1,0-3.8-0.7-5.1-2s-2-3-2-5.1c0-1.9,0.7-3.6,2-4.9c1.3-1.5,3-2.2,5.1-2.2c1.9,0,3.6,0.7,4.9,2.2
			c1.5,1.3,2.2,3,2.2,4.9c0,2.1-0.7,3.8-2.2,5.1C466.7,543.6,465.1,544.2,463.1,544.2z M463.1,558.5c-2.1,0-3.8-0.7-5.1-2
			s-2-3-2-5.1c0-1.9,0.7-3.6,2-4.9c1.3-1.5,3-2.2,5.1-2.2c1.9,0,3.6,0.7,4.9,2.2c1.5,1.3,2.2,3,2.2,4.9c0,2.1-0.7,3.8-2.2,5.1
			C466.7,557.8,465.1,558.5,463.1,558.5z M463.1,572.7c-2.1,0-3.8-0.7-5.1-2s-2-3-2-5.1c0-1.9,0.7-3.6,2-4.9c1.3-1.5,3-2.2,5.1-2.2
			c1.9,0,3.6,0.7,4.9,2.2c1.5,1.3,2.2,3,2.2,4.9c0,2.1-0.7,3.8-2.2,5.1C466.7,572.1,465.1,572.7,463.1,572.7z M463.1,587
			c-2.1,0-3.8-0.7-5.1-2s-2-3-2-5.1c0-1.9,0.7-3.6,2-4.9c1.3-1.5,3-2.2,5.1-2.2c1.9,0,3.6,0.7,4.9,2.2c1.5,1.3,2.2,3,2.2,4.9
			c0,2.1-0.7,3.8-2.2,5.1C466.7,586.3,465.1,587,463.1,587z M477.4,515.7c-2.1,0-3.8-0.7-5.1-2s-2-3-2-5.1c0-1.9,0.7-3.6,2-4.9
			c1.3-1.5,3-2.2,5.1-2.2c1.9,0,3.6,0.7,4.9,2.2c1.5,1.3,2.2,3,2.2,4.9c0,2.1-0.7,3.8-2.2,5.1C480.9,515.1,479.3,515.7,477.4,515.7z
			 M491.6,501.5c-2.1,0-3.8-0.7-5.1-2s-2-3-2-5.1c0-1.9,0.7-3.6,2-4.9c1.3-1.5,3-2.2,5.1-2.2c1.9,0,3.6,0.7,4.9,2.2
			c1.5,1.3,2.2,3,2.2,4.9c0,2.1-0.7,3.8-2.2,5.1C495.2,500.8,493.6,501.5,491.6,501.5z"/>
		<path id="XMLID_782_" class="st0" d="M533.6,515.7c-2.1,0-3.8-0.7-5.1-2s-2-3-2-5.1c0-1.9,0.7-3.6,2-4.9c1.3-1.5,3-2.2,5.1-2.2
			c1.9,0,3.6,0.7,4.9,2.2c1.5,1.3,2.2,3,2.2,4.9c0,2.1-0.7,3.8-2.2,5.1C537.2,515.1,535.6,515.7,533.6,515.7z M533.6,530
			c-2.1,0-3.8-0.7-5.1-2s-2-3-2-5.1c0-1.9,0.7-3.6,2-4.9c1.3-1.5,3-2.2,5.1-2.2c1.9,0,3.6,0.7,4.9,2.2c1.5,1.3,2.2,3,2.2,4.9
			c0,2.1-0.7,3.8-2.2,5.1C537.2,529.3,535.6,530,533.6,530z M533.6,544.2c-2.1,0-3.8-0.7-5.1-2s-2-3-2-5.1c0-1.9,0.7-3.6,2-4.9
			c1.3-1.5,3-2.2,5.1-2.2c1.9,0,3.6,0.7,4.9,2.2c1.5,1.3,2.2,3,2.2,4.9c0,2.1-0.7,3.8-2.2,5.1C537.2,543.6,535.6,544.2,533.6,544.2z
			 M533.6,558.5c-2.1,0-3.8-0.7-5.1-2s-2-3-2-5.1c0-1.9,0.7-3.6,2-4.9c1.3-1.5,3-2.2,5.1-2.2c1.9,0,3.6,0.7,4.9,2.2
			c1.5,1.3,2.2,3,2.2,4.9c0,2.1-0.7,3.8-2.2,5.1C537.2,557.8,535.6,558.5,533.6,558.5z M533.6,572.7c-2.1,0-3.8-0.7-5.1-2
			s-2-3-2-5.1c0-1.9,0.7-3.6,2-4.9c1.3-1.5,3-2.2,5.1-2.2c1.9,0,3.6,0.7,4.9,2.2c1.5,1.3,2.2,3,2.2,4.9c0,2.1-0.7,3.8-2.2,5.1
			C537.2,572.1,535.6,572.7,533.6,572.7z M533.6,587c-2.1,0-3.8-0.7-5.1-2s-2-3-2-5.1c0-1.9,0.7-3.6,2-4.9c1.3-1.5,3-2.2,5.1-2.2
			c1.9,0,3.6,0.7,4.9,2.2c1.5,1.3,2.2,3,2.2,4.9c0,2.1-0.7,3.8-2.2,5.1C537.2,586.3,535.6,587,533.6,587z M547.9,501.5
			c-2.1,0-3.8-0.7-5.1-2s-2-3-2-5.1c0-1.9,0.7-3.6,2-4.9c1.3-1.5,3-2.2,5.1-2.2c1.9,0,3.6,0.7,4.9,2.2c1.5,1.3,2.2,3,2.2,4.9
			c0,2.1-0.7,3.8-2.2,5.1C551.4,500.8,549.8,501.5,547.9,501.5z M547.9,544.2c-2.1,0-3.8-0.7-5.1-2s-2-3-2-5.1c0-1.9,0.7-3.6,2-4.9
			c1.3-1.5,3-2.2,5.1-2.2c1.9,0,3.6,0.7,4.9,2.2c1.5,1.3,2.2,3,2.2,4.9c0,2.1-0.7,3.8-2.2,5.1C551.4,543.6,549.8,544.2,547.9,544.2z
			 M562.1,501.5c-2.1,0-3.8-0.7-5.1-2s-2-3-2-5.1c0-1.9,0.7-3.6,2-4.9c1.3-1.5,3-2.2,5.1-2.2c1.9,0,3.6,0.7,4.9,2.2
			c1.5,1.3,2.2,3,2.2,4.9c0,2.1-0.7,3.8-2.2,5.1C565.7,500.8,564.1,501.5,562.1,501.5z M562.1,544.2c-2.1,0-3.8-0.7-5.1-2
			s-2-3-2-5.1c0-1.9,0.7-3.6,2-4.9c1.3-1.5,3-2.2,5.1-2.2c1.9,0,3.6,0.7,4.9,2.2c1.5,1.3,2.2,3,2.2,4.9c0,2.1-0.7,3.8-2.2,5.1
			C565.7,543.6,564.1,544.2,562.1,544.2z M576.4,501.5c-2.1,0-3.8-0.7-5.1-2s-2-3-2-5.1c0-1.9,0.7-3.6,2-4.9c1.3-1.5,3-2.2,5.1-2.2
			c1.9,0,3.6,0.7,4.9,2.2c1.5,1.3,2.2,3,2.2,4.9c0,2.1-0.7,3.8-2.2,5.1C579.9,500.8,578.3,501.5,576.4,501.5z M576.4,544.2
			c-2.1,0-3.8-0.7-5.1-2s-2-3-2-5.1c0-1.9,0.7-3.6,2-4.9c1.3-1.5,3-2.2,5.1-2.2c1.9,0,3.6,0.7,4.9,2.2c1.5,1.3,2.2,3,2.2,4.9
			c0,2.1-0.7,3.8-2.2,5.1C579.9,543.6,578.3,544.2,576.4,544.2z M590.6,515.7c-2.1,0-3.8-0.7-5.1-2s-2-3-2-5.1c0-1.9,0.7-3.6,2-4.9
			c1.3-1.5,3-2.2,5.1-2.2c1.9,0,3.6,0.7,4.9,2.2c1.5,1.3,2.2,3,2.2,4.9c0,2.1-0.7,3.8-2.2,5.1C594.2,515.1,592.6,515.7,590.6,515.7z
			 M590.6,530c-2.1,0-3.8-0.7-5.1-2s-2-3-2-5.1c0-1.9,0.7-3.6,2-4.9c1.3-1.5,3-2.2,5.1-2.2c1.9,0,3.6,0.7,4.9,2.2
			c1.5,1.3,2.2,3,2.2,4.9c0,2.1-0.7,3.8-2.2,5.1C594.2,529.3,592.6,530,590.6,530z"/>
		<path id="XMLID_765_" class="st0" d="M619.1,515.7c-2.1,0-3.8-0.7-5.1-2s-2-3-2-5.1c0-1.9,0.7-3.6,2-4.9c1.3-1.5,3-2.2,5.1-2.2
			c1.9,0,3.6,0.7,4.9,2.2c1.5,1.3,2.2,3,2.2,4.9c0,2.1-0.7,3.8-2.2,5.1C622.7,515.1,621.1,515.7,619.1,515.7z M619.1,530
			c-2.1,0-3.8-0.7-5.1-2s-2-3-2-5.1c0-1.9,0.7-3.6,2-4.9c1.3-1.5,3-2.2,5.1-2.2c1.9,0,3.6,0.7,4.9,2.2c1.5,1.3,2.2,3,2.2,4.9
			c0,2.1-0.7,3.8-2.2,5.1C622.7,529.3,621.1,530,619.1,530z M619.1,558.5c-2.1,0-3.8-0.7-5.1-2s-2-3-2-5.1c0-1.9,0.7-3.6,2-4.9
			c1.3-1.5,3-2.2,5.1-2.2c1.9,0,3.6,0.7,4.9,2.2c1.5,1.3,2.2,3,2.2,4.9c0,2.1-0.7,3.8-2.2,5.1C622.7,557.8,621.1,558.5,619.1,558.5z
			 M619.1,572.7c-2.1,0-3.8-0.7-5.1-2s-2-3-2-5.1c0-1.9,0.7-3.6,2-4.9c1.3-1.5,3-2.2,5.1-2.2c1.9,0,3.6,0.7,4.9,2.2
			c1.5,1.3,2.2,3,2.2,4.9c0,2.1-0.7,3.8-2.2,5.1C622.7,572.1,621.1,572.7,619.1,572.7z M619.1,587c-2.1,0-3.8-0.7-5.1-2s-2-3-2-5.1
			c0-1.9,0.7-3.6,2-4.9c1.3-1.5,3-2.2,5.1-2.2c1.9,0,3.6,0.7,4.9,2.2c1.5,1.3,2.2,3,2.2,4.9c0,2.1-0.7,3.8-2.2,5.1
			C622.7,586.3,621.1,587,619.1,587z M633.4,501.5c-2.1,0-3.8-0.7-5.1-2s-2-3-2-5.1c0-1.9,0.7-3.6,2-4.9c1.3-1.5,3-2.2,5.1-2.2
			c1.9,0,3.6,0.7,4.9,2.2c1.5,1.3,2.2,3,2.2,4.9c0,2.1-0.7,3.8-2.2,5.1C636.9,500.8,635.3,501.5,633.4,501.5z M633.4,544.2
			c-2.1,0-3.8-0.7-5.1-2s-2-3-2-5.1c0-1.9,0.7-3.6,2-4.9c1.3-1.5,3-2.2,5.1-2.2c1.9,0,3.6,0.7,4.9,2.2c1.5,1.3,2.2,3,2.2,4.9
			c0,2.1-0.7,3.8-2.2,5.1C636.9,543.6,635.3,544.2,633.4,544.2z M647.6,501.5c-2.1,0-3.8-0.7-5.1-2s-2-3-2-5.1c0-1.9,0.7-3.6,2-4.9
			c1.3-1.5,3-2.2,5.1-2.2c1.9,0,3.6,0.7,4.9,2.2c1.5,1.3,2.2,3,2.2,4.9c0,2.1-0.7,3.8-2.2,5.1C651.2,500.8,649.6,501.5,647.6,501.5z
			 M647.6,558.5c-2.1,0-3.8-0.7-5.1-2s-2-3-2-5.1c0-1.9,0.7-3.6,2-4.9c1.3-1.5,3-2.2,5.1-2.2c1.9,0,3.6,0.7,4.9,2.2
			c1.5,1.3,2.2,3,2.2,4.9c0,2.1-0.7,3.8-2.2,5.1C651.2,557.8,649.6,558.5,647.6,558.5z M661.9,501.5c-2.1,0-3.8-0.7-5.1-2
			s-2-3-2-5.1c0-1.9,0.7-3.6,2-4.9c1.3-1.5,3-2.2,5.1-2.2c1.9,0,3.6,0.7,4.9,2.2c1.5,1.3,2.2,3,2.2,4.9c0,2.1-0.7,3.8-2.2,5.1
			C665.4,500.8,663.8,501.5,661.9,501.5z M661.9,544.2c-2.1,0-3.8-0.7-5.1-2s-2-3-2-5.1c0-1.9,0.7-3.6,2-4.9c1.3-1.5,3-2.2,5.1-2.2
			c1.9,0,3.6,0.7,4.9,2.2c1.5,1.3,2.2,3,2.2,4.9c0,2.1-0.7,3.8-2.2,5.1C665.4,543.6,663.8,544.2,661.9,544.2z M676.1,515.7
			c-2.1,0-3.8-0.7-5.1-2s-2-3-2-5.1c0-1.9,0.7-3.6,2-4.9c1.3-1.5,3-2.2,5.1-2.2c1.9,0,3.6,0.7,4.9,2.2c1.5,1.3,2.2,3,2.2,4.9
			c0,2.1-0.7,3.8-2.2,5.1C679.7,515.1,678.1,515.7,676.1,515.7z M676.1,530c-2.1,0-3.8-0.7-5.1-2s-2-3-2-5.1c0-1.9,0.7-3.6,2-4.9
			c1.3-1.5,3-2.2,5.1-2.2c1.9,0,3.6,0.7,4.9,2.2c1.5,1.3,2.2,3,2.2,4.9c0,2.1-0.7,3.8-2.2,5.1C679.7,529.3,678.1,530,676.1,530z
			 M676.1,558.5c-2.1,0-3.8-0.7-5.1-2s-2-3-2-5.1c0-1.9,0.7-3.6,2-4.9c1.3-1.5,3-2.2,5.1-2.2c1.9,0,3.6,0.7,4.9,2.2
			c1.5,1.3,2.2,3,2.2,4.9c0,2.1-0.7,3.8-2.2,5.1C679.7,557.8,678.1,558.5,676.1,558.5z M676.1,572.7c-2.1,0-3.8-0.7-5.1-2
			s-2-3-2-5.1c0-1.9,0.7-3.6,2-4.9c1.3-1.5,3-2.2,5.1-2.2c1.9,0,3.6,0.7,4.9,2.2c1.5,1.3,2.2,3,2.2,4.9c0,2.1-0.7,3.8-2.2,5.1
			C679.7,572.1,678.1,572.7,676.1,572.7z M676.1,587c-2.1,0-3.8-0.7-5.1-2s-2-3-2-5.1c0-1.9,0.7-3.6,2-4.9c1.3-1.5,3-2.2,5.1-2.2
			c1.9,0,3.6,0.7,4.9,2.2c1.5,1.3,2.2,3,2.2,4.9c0,2.1-0.7,3.8-2.2,5.1C679.7,586.3,678.1,587,676.1,587z"/>
		<path id="XMLID_754_" class="st0" d="M704.6,501.5c-2.1,0-3.8-0.7-5.1-2s-2-3-2-5.1c0-1.9,0.7-3.6,2-4.9c1.3-1.5,3-2.2,5.1-2.2
			c1.9,0,3.6,0.7,4.9,2.2c1.5,1.3,2.2,3,2.2,4.9c0,2.1-0.7,3.8-2.2,5.1C708.2,500.8,706.6,501.5,704.6,501.5z M704.6,515.7
			c-2.1,0-3.8-0.7-5.1-2s-2-3-2-5.1c0-1.9,0.7-3.6,2-4.9c1.3-1.5,3-2.2,5.1-2.2c1.9,0,3.6,0.7,4.9,2.2c1.5,1.3,2.2,3,2.2,4.9
			c0,2.1-0.7,3.8-2.2,5.1C708.2,515.1,706.6,515.7,704.6,515.7z M704.6,530c-2.1,0-3.8-0.7-5.1-2s-2-3-2-5.1c0-1.9,0.7-3.6,2-4.9
			c1.3-1.5,3-2.2,5.1-2.2c1.9,0,3.6,0.7,4.9,2.2c1.5,1.3,2.2,3,2.2,4.9c0,2.1-0.7,3.8-2.2,5.1C708.2,529.3,706.6,530,704.6,530z
			 M704.6,544.2c-2.1,0-3.8-0.7-5.1-2s-2-3-2-5.1c0-1.9,0.7-3.6,2-4.9c1.3-1.5,3-2.2,5.1-2.2c1.9,0,3.6,0.7,4.9,2.2
			c1.5,1.3,2.2,3,2.2,4.9c0,2.1-0.7,3.8-2.2,5.1C708.2,543.6,706.6,544.2,704.6,544.2z M704.6,558.5c-2.1,0-3.8-0.7-5.1-2
			s-2-3-2-5.1c0-1.9,0.7-3.6,2-4.9c1.3-1.5,3-2.2,5.1-2.2c1.9,0,3.6,0.7,4.9,2.2c1.5,1.3,2.2,3,2.2,4.9c0,2.1-0.7,3.8-2.2,5.1
			C708.2,557.8,706.6,558.5,704.6,558.5z M704.6,572.7c-2.1,0-3.8-0.7-5.1-2s-2-3-2-5.1c0-1.9,0.7-3.6,2-4.9c1.3-1.5,3-2.2,5.1-2.2
			c1.9,0,3.6,0.7,4.9,2.2c1.5,1.3,2.2,3,2.2,4.9c0,2.1-0.7,3.8-2.2,5.1C708.2,572.1,706.6,572.7,704.6,572.7z M718.9,587
			c-2.1,0-3.8-0.7-5.1-2s-2-3-2-5.1c0-1.9,0.7-3.6,2-4.9c1.3-1.5,3-2.2,5.1-2.2c1.9,0,3.6,0.7,4.9,2.2c1.5,1.3,2.2,3,2.2,4.9
			c0,2.1-0.7,3.8-2.2,5.1C722.4,586.3,720.8,587,718.9,587z M733.1,587c-2.1,0-3.8-0.7-5.1-2s-2-3-2-5.1c0-1.9,0.7-3.6,2-4.9
			c1.3-1.5,3-2.2,5.1-2.2c1.9,0,3.6,0.7,4.9,2.2c1.5,1.3,2.2,3,2.2,4.9c0,2.1-0.7,3.8-2.2,5.1C736.7,586.3,735.1,587,733.1,587z
			 M747.4,587c-2.1,0-3.8-0.7-5.1-2s-2-3-2-5.1c0-1.9,0.7-3.6,2-4.9c1.3-1.5,3-2.2,5.1-2.2c1.9,0,3.6,0.7,4.9,2.2
			c1.5,1.3,2.2,3,2.2,4.9c0,2.1-0.7,3.8-2.2,5.1C750.9,586.3,749.3,587,747.4,587z M761.6,587c-2.1,0-3.8-0.7-5.1-2s-2-3-2-5.1
			c0-1.9,0.7-3.6,2-4.9c1.3-1.5,3-2.2,5.1-2.2c1.9,0,3.6,0.7,4.9,2.2c1.5,1.3,2.2,3,2.2,4.9c0,2.1-0.7,3.8-2.2,5.1
			C765.2,586.3,763.6,587,761.6,587z"/>
	</g>
	<g id="XMLID_131_">
		<polygon id="XMLID_134_" class="st1" points="404.8,314.8 404,317.1 402.4,321.9 403.1,322.1 405.9,323.1 408.7,324 411.1,317 
			406.9,315.6 		"/>
		<polygon id="XMLID_608_" class="st1" points="265.8,91.7 262.7,100.8 274.9,94.8 		"/>
		<path id="XMLID_609_" class="st1" d="M325.3,284.7c1.4-0.1,2.7-0.1,4.1-0.2c1.1-0.1,2.2-0.2,3.2-0.3c1.1-0.1,2.1-0.2,3.2-0.4
			c3.5-0.5,6.7-1.1,9.5-1.9c7.3-2,8.9-4.2,8.9-4.6s-1.5-2.5-8.9-4.6c-4.6-1.3-10.2-2.2-16.3-2.6c-1.1-0.1-2.3-0.2-3.4-0.2
			c-1.1-0.1-2.3-0.1-3.4-0.1c-0.9,0-1.8,0-2.8,0c-0.5,0-1,0-1.5,0c-1.1,0-2.2,0-3.3,0.1c-1.1,0-2.2,0.1-3.3,0.2
			c-2.3,0.1-4.6,0.3-6.7,0.6c-2.1,0.3-4.1,0.6-6,0.9c-1.8,0.3-3.5,0.7-5.1,1.2c-7.3,2-8.9,4.2-8.9,4.6s1.5,2.5,8.9,4.6
			c1.6,0.4,3.3,0.8,5.1,1.2c1.9,0.4,3.9,0.7,6,0.9c4.4,0.5,9.1,0.8,14.1,0.9c0.2,0,0.5,0,0.7,0c0.9,0,1.8,0,2.6,0
			C323.1,284.8,324.2,284.7,325.3,284.7z"/>
		<path id="XMLID_610_" class="st1" d="M413.5,328.3l3.8-1.9l-0.5-1.1c-0.8,0-1.5-0.1-2.2-0.2L413.5,328.3z"/>
		<path id="XMLID_611_" class="st1" d="M233.7,249v44.7c0.4,1.9,11.1,6.9,32.4,6.9c4.7,0,8.8-0.2,12.5-0.6v-22.7
			c0-6,8.6-9.8,20-11.9l0-16.4c-7.3,3.8-20.2,5.5-32.4,5.5C253.9,254.6,241,252.8,233.7,249z"/>
		<polygon id="XMLID_612_" class="st1" points="278.4,85.5 275.3,94.6 287.5,88.6 		"/>
		<polygon id="XMLID_613_" class="st1" points="296.3,81.1 291,79.3 287.8,88.4 297.5,83.6 		"/>
		<path id="XMLID_614_" class="st1" d="M254.6,132.9c-3.7-7.4-0.6-16.4,6.8-20.1l23.8-11.7c3.6-1.8,7.6-2,11.5-0.7
			c3.8,1.3,6.9,4,8.6,7.6l11.9,24.1l3.9,7.8l83.1,168.5l5.1,1.7l-86.4-175.1l-2.8-5.7L300.2,89l-57.4,28.3l11.5,23.3
			c0.2,0,0.4-0.1,0.6-0.1c1-0.1,2.2-0.2,3.4-0.3L254.6,132.9z"/>
		<path id="XMLID_615_" class="st1" d="M308.5,264.1l-3.9-7.9v8.2C305.9,264.4,307.2,264.2,308.5,264.1z"/>
		<path id="XMLID_616_" class="st1" d="M402.5,328.3c-1.1,1.1-2.4,2-3.8,2.7l-23.8,11.7c-2.1,1-4.3,1.5-6.6,1.5
			c-1.6,0-3.3-0.3-4.9-0.8c-1.2-0.4-2.3-0.9-3.3-1.6v12.9l49-24.2L402.5,328.3z"/>
		<polygon id="XMLID_617_" class="st1" points="411.8,185.1 411.8,182 411.8,178.9 414.5,177.3 417.2,175.7 461.3,150.1 466.6,147 
			472,150.1 510.8,172.8 510.8,136.7 494.3,120.2 474.7,139.7 455.1,120.2 435.5,139.7 416,120.2 396.4,139.6 376.8,120.2 
			357.2,139.6 337.7,120.2 327.3,130.4 411.8,301.7 		"/>
		<path id="XMLID_618_" class="st1" d="M468,181.2c-0.2,0.1-0.3,0.2-0.5,0.2c-0.3,0.1-0.5,0.2-0.8,0.3c-0.2,0.1-0.4,0.1-0.6,0.2
			c-0.3,0.1-0.5,0.2-0.8,0.3c-0.2,0.1-0.4,0.1-0.6,0.2c-0.3,0.1-0.6,0.1-0.9,0.2c-0.2,0-0.4,0.1-0.6,0.1c-0.3,0.1-0.6,0.1-0.9,0.2
			c-0.2,0-0.4,0.1-0.6,0.1c-0.3,0-0.7,0.1-1,0.1c-0.2,0-0.3,0-0.5,0c-0.5,0-1.1,0.1-1.6,0.1c-0.5,0-1.1,0-1.6-0.1
			c-0.2,0-0.3,0-0.5,0c-0.4,0-0.7-0.1-1.1-0.1c-0.2,0-0.4-0.1-0.6-0.1c-0.3,0-0.6-0.1-0.9-0.2c-0.2,0-0.4-0.1-0.6-0.1
			c-0.3-0.1-0.6-0.1-0.9-0.2c-0.2-0.1-0.4-0.1-0.6-0.2c-0.3-0.1-0.6-0.2-0.8-0.3c-0.2-0.1-0.4-0.1-0.6-0.2c-0.3-0.1-0.5-0.2-0.8-0.3
			c-0.2-0.1-0.3-0.1-0.5-0.2c-0.3-0.1-0.6-0.3-0.8-0.4c-0.1-0.1-0.3-0.1-0.4-0.2c0,0-0.1,0-0.1,0v2.8c0,2.7,4.4,5.8,10.8,5.8
			c6.4,0,10.8-3.1,10.8-5.8v-2.8c0,0-0.1,0-0.1,0.1c-0.1,0.1-0.3,0.2-0.4,0.2C468.5,180.9,468.3,181.1,468,181.2z"/>
		<path id="XMLID_619_" class="st1" d="M416,111.7l16.9,16.8l3.8-27.8c2.6-10.8,1-21.9-4.5-30.2c-3.3-5-7.7-8.4-11.9-9.2
			c-4.4-0.8-10,1.1-15,5c-8.2,6.4-13.2,16.7-14,28.2l0,0.2l-0.4,3.2c10.5-7.4,23.2-7.3,23.8-7.2l-0.1,6c-0.2,0-15.8-0.1-25,10.4
			l-0.5,3.8c10.8-8.7,24.9-8.6,25.6-8.6l-0.1,6c-0.2,0-17.5-0.1-26.3,12l-0.4-0.3l-0.3,2.3l8.8,8.8L416,111.7z"/>
		<path id="XMLID_620_" class="st1" d="M458.5,165.6c-6.4,0-10.8,3.1-10.8,5.8c0,1.6,1.5,2.9,2.4,3.5c2.1,1.5,5.2,2.3,8.4,2.3
			c3.2,0,6.3-0.8,8.5-2.3c0.9-0.6,2.4-1.9,2.4-3.5C469.3,168.7,464.9,165.6,458.5,165.6z"/>
		<path id="XMLID_621_" class="st1" d="M315,263.8c1.4,0,2.8-0.1,4.2-0.1l-14.7-29.8c0.1,2.1,0.2,4.3,0.1,6.5l0,1.3v1.1L315,263.8z"
			/>
		<path id="XMLID_622_" class="st1" d="M284.6,144.9V163c0,2.1-1.6,3.1-3.4,3.6c0.8,4.4,1.8,8.8,3.2,13l13,26.3
			c0.2,0.4,0.4,0.9,0.6,1.3l27.9,56.6c17.5,0.8,34.2,5.1,34.2,13.4v55.9l0,0.1c2.2,4.5,7.6,6.3,12.1,4.1l23.2-11.5l-0.7-0.2
			l4.6-13.6l-78.3-158.7l-6-12.2l-15.1-30.7c-2.2-4.5-7.6-6.3-12.1-4.1l-23.8,11.7c-4.5,2.2-6.3,7.6-4.1,12.1l4.8,9.7
			c0.4,0,0.9,0,1.3,0c4.2,0,8.2,0.2,11.3,0.6C280.3,140.9,284.6,141.4,284.6,144.9z"/>
		<path id="XMLID_625_" class="st1" d="M314,375.2c-1.7-0.1-2.9-1.5-2.9-3.1c0.1-1.7,1.4-2.9,3.1-2.9c1.6,0.1,3.2,0.1,4.8,0.1
			c9.8,0,19-1.1,25.9-3c7.3-2,8.9-4.2,8.9-4.6c0-0.5,0.1-0.9,0.3-1.3v-1.9c-7.6,4.2-21.7,6.2-35,6.2c-1.7,0-3.4,0-5.1-0.1
			s-2.9-1.5-2.9-3.1s1.5-2.9,3.1-2.9c1.6,0.1,3.2,0.1,4.8,0.1c9.8,0,19-1.1,25.9-3c3.7-1,6-2.1,7.3-3c1.2-0.8,1.6-1.4,1.6-1.6
			c0-0.5,0.1-0.9,0.3-1.3v0v-6.8v-8.5v-6.8V321v-9.8c-1.2,0.7-2.5,1.2-4,1.8c-0.9,0.3-1.9,0.7-2.9,1c-0.9,0.3-1.9,0.5-3,0.8
			c-1.2,0.3-2.5,0.6-3.8,0.8c-1,0.2-2,0.4-3.1,0.5c-1,0.2-2.1,0.3-3.1,0.4c-4.9,0.6-10.1,0.9-15.2,0.9c-1.7,0-3.4,0-5.1-0.1
			c-1.7-0.1-2.9-1.5-2.9-3.1c0.1-1.7,1.5-2.9,3.1-2.9c1.6,0.1,3.2,0.1,4.8,0.1c4.3,0,8.5-0.2,12.4-0.6c1.1-0.1,2.1-0.2,3.2-0.4
			c1.1-0.1,2.1-0.3,3.1-0.5c1.3-0.2,2.6-0.5,3.8-0.7c1-0.2,2-0.5,3-0.7c0.1,0,0.3-0.1,0.4-0.1c0.9-0.3,1.8-0.5,2.5-0.8
			c5.2-1.8,6.3-3.5,6.3-3.8c0-0.5,0.1-0.9,0.3-1.3v-1.9c-2.3,1.3-5.2,2.3-8.5,3.2c-1,0.3-2,0.5-3,0.7c-1,0.2-2,0.4-3.1,0.6
			c-1.3,0.2-2.6,0.4-3.9,0.6c-1,0.1-2.1,0.3-3.2,0.4c-1.1,0.1-2.1,0.2-3.2,0.3c-3.4,0.3-6.8,0.4-10.2,0.4c-1.7,0-3.4,0-5.1-0.1
			c-1.7-0.1-2.9-1.5-2.9-3.1c0.1-1.7,1.5-2.9,3.1-2.9c1.6,0.1,3.2,0.1,4.8,0.1c2.5,0,5-0.1,7.4-0.2c1.1-0.1,2.2-0.1,3.2-0.2
			c1.1-0.1,2.1-0.2,3.2-0.3c1.4-0.2,2.7-0.3,3.9-0.5c1.1-0.2,2.1-0.3,3.1-0.5c1-0.2,2-0.4,3-0.7c0.7-0.2,1.4-0.3,2-0.5
			c7.3-2,8.9-4.2,8.9-4.6c0-0.5,0.1-0.9,0.3-1.3v-7.1c-0.1,0-0.1,0.1-0.2,0.1c-0.3,0.2-0.7,0.4-1.1,0.5c-0.1,0-0.2,0.1-0.3,0.1
			c-0.5,0.2-1,0.4-1.5,0.6c-0.1,0-0.2,0.1-0.3,0.1c-0.4,0.2-0.8,0.3-1.3,0.5c-0.2,0.1-0.3,0.1-0.5,0.2c-0.4,0.1-0.9,0.3-1.4,0.4
			c-0.1,0-0.2,0.1-0.3,0.1c-0.6,0.2-1.2,0.3-1.8,0.5c-0.1,0-0.3,0.1-0.5,0.1c-0.5,0.1-1,0.2-1.5,0.3c-0.2,0-0.4,0.1-0.6,0.1
			c-0.5,0.1-1.1,0.2-1.6,0.3c-0.1,0-0.2,0-0.3,0.1c-0.7,0.1-1.3,0.2-2,0.4c-0.1,0-0.3,0-0.5,0.1c0,0-0.1,0-0.1,0
			c-0.5,0.1-1.1,0.2-1.6,0.2c-0.2,0-0.4,0.1-0.6,0.1c-0.3,0-0.5,0.1-0.8,0.1c-0.3,0-0.7,0.1-1,0.1c-0.1,0-0.2,0-0.3,0
			c-0.6,0.1-1.2,0.1-1.9,0.2c-0.1,0-0.2,0-0.3,0c-0.2,0-0.4,0-0.6,0.1c-0.6,0.1-1.1,0.1-1.7,0.1c-0.2,0-0.4,0-0.7,0
			c-0.3,0-0.6,0-0.8,0.1c-0.4,0-0.8,0.1-1.2,0.1c-0.1,0-0.1,0-0.2,0c-0.6,0-1.2,0.1-1.9,0.1c-0.1,0-0.2,0-0.4,0c-0.2,0-0.4,0-0.6,0
			c-0.6,0-1.1,0-1.7,0c-0.2,0-0.4,0-0.6,0c0,0,0,0,0,0c-0.7,0-1.5,0-2.2,0s-1.5,0-2.2,0c-0.2,0-0.4,0-0.6,0c-0.6,0-1.1,0-1.7,0
			c-0.2,0-0.4,0-0.6,0c-0.7,0-1.5-0.1-2.2-0.1c-0.1,0-0.1,0-0.2,0c-0.7,0-1.4-0.1-2.1-0.1c-0.2,0-0.4,0-0.7,0
			c-0.6,0-1.1-0.1-1.7-0.1c-0.2,0-0.4,0-0.6-0.1c-0.7-0.1-1.4-0.1-2.2-0.2c0,0,0,0-0.1,0c-0.1,0-0.1,0-0.2,0
			c-0.6-0.1-1.2-0.2-1.9-0.2c-0.2,0-0.4-0.1-0.6-0.1c-0.5-0.1-1.1-0.2-1.6-0.2c-0.2,0-0.4-0.1-0.5-0.1c-0.4-0.1-0.8-0.1-1.2-0.2
			c-0.3,0-0.6-0.1-0.8-0.2c-0.1,0-0.2,0-0.3-0.1c-0.6-0.1-1.1-0.2-1.6-0.3c-0.2,0-0.4-0.1-0.6-0.1c-0.5-0.1-1-0.2-1.4-0.3
			c-0.2,0-0.3-0.1-0.5-0.1c-0.6-0.2-1.2-0.3-1.8-0.5c-0.1,0-0.2-0.1-0.4-0.1c-0.5-0.1-0.9-0.3-1.4-0.4c-0.2-0.1-0.3-0.1-0.5-0.2
			c-0.4-0.1-0.8-0.3-1.3-0.5c-0.1,0-0.2-0.1-0.3-0.1c-0.5-0.2-1-0.4-1.5-0.6c-0.1,0-0.2-0.1-0.3-0.1c-0.4-0.2-0.7-0.3-1.1-0.5
			c-0.1,0-0.1-0.1-0.2-0.1v14.3v6.1v36.2v6.1v30.2c0,0.3,1.5,2.5,8.9,4.6c6.9,1.9,16.1,3,25.9,3s19-1.1,25.9-3
			c7.3-2,8.9-4.2,8.9-4.6v-8.6c-7.6,4.2-21.7,6.2-35,6.2C317.4,375.3,315.7,375.3,314,375.2z M295.3,301.5c0.3-1.6,1.9-2.7,3.5-2.4
			c1.8,0.3,3.8,0.6,5.8,0.9c0.4,0,0.7,0.1,1.1,0.1c1.6,0.2,2.8,1.7,2.7,3.3c-0.2,1.5-1.5,2.7-3,2.7c-0.1,0-0.2,0-0.3,0
			c-0.2,0-0.3,0-0.5-0.1c-2.1-0.2-4.1-0.5-6-0.9c-0.3-0.1-0.6-0.1-0.9-0.2c-1.3-0.2-2.2-1.2-2.4-2.5
			C295.3,302.2,295.3,301.8,295.3,301.5z M308.4,313.9c-0.2,1.5-1.5,2.7-3,2.7c-0.1,0-0.2,0-0.3,0c-0.2,0-0.3,0-0.5-0.1
			c-1.1-0.1-2.3-0.3-3.4-0.4c-1.6-0.2-2.8-1.8-2.5-3.4c0.2-1.6,1.8-2.8,3.4-2.5c0.8,0.1,1.7,0.2,2.5,0.3c0.4,0,0.7,0.1,1.1,0.1
			C307.4,310.8,308.6,312.3,308.4,313.9z M309.1,372c-0.2,1.5-1.5,2.7-3,2.7c-0.1,0-0.2,0-0.3,0c-1.6-0.2-3.1-0.4-4.6-0.6
			c-1.6-0.2-2.8-1.8-2.5-3.4c0.2-1.6,1.8-2.8,3.4-2.5c1.4,0.2,2.8,0.4,4.3,0.5C308,368.8,309.2,370.3,309.1,372z M309.2,361.4
			c-0.2,1.5-1.5,2.7-3,2.7c-0.1,0-0.2,0-0.3,0c-2.9-0.3-5.6-0.7-8.2-1.2c-1.6-0.3-2.7-1.9-2.4-3.5c0.3-1.6,1.9-2.7,3.5-2.4
			c2.4,0.4,5,0.8,7.7,1.1C308.2,358.3,309.4,359.8,309.2,361.4z"/>
		<path id="XMLID_629_" class="st1" d="M459.2,74.4l-0.1,6c-0.1,0-7.9-0.1-15.7,3.6c0.2,1.6,0.4,3.3,0.4,5c7.9-3,15-2.9,15.4-2.9
			l-0.1,6c-0.1,0-7.8-0.1-15.5,3.4c-0.2,2.2-0.6,4.3-1.1,6.5l-3.5,25.8l16.1-16l19.1,19l5.8-42.7c2.6-10.8,1-21.9-4.5-30.2
			c-3.3-5-7.7-8.4-11.9-9.2c-8.1-1.5-20.2,6.1-25.8,19.7c1.8,3,3.2,6.2,4.2,9.6C450.7,74.3,458.8,74.4,459.2,74.4z"/>
		<polygon id="XMLID_630_" class="st1" points="532.2,233.3 533.4,232.7 533.3,206.7 532.2,207.3 		"/>
		<polygon id="XMLID_631_" class="st1" points="538.8,235.5 538.4,236.3 535.7,237.6 533.5,238.8 532.2,239.4 532.2,239.4 
			532.2,239.4 531.8,239.6 526.8,238.3 524,237.5 504.7,232.2 498.1,230.4 498.1,232.3 498.1,356.1 545,328.8 545,225.5 
			541.4,231.4 		"/>
		<polygon id="XMLID_632_" class="st1" points="526.8,232.7 526.8,210.5 500.8,225.6 		"/>
		<path id="XMLID_633_" class="st1" d="M540.4,196.3l-73.8-43.1l-11.3,6.5c1-0.1,2.1-0.2,3.2-0.2c9.4,0,16.8,5.2,16.8,11.8v11.9
			c0,6.6-7.4,11.8-16.8,11.8c-9.4,0-16.8-5.2-16.8-11.8v-11.9c0-1.5,0.4-3,1.2-4.4l-23,13.4l72.8,42.5l1,0.6l4.4-2.5L540.4,196.3z"
			/>
		<polygon id="XMLID_634_" class="st1" points="253.3,97.9 250.1,107 262.4,101 		"/>
		<path id="XMLID_635_" class="st1" d="M490.9,228.1l-2.5-1.5l-71.1-41.5v127.5l0.1,0.1l1.4,0.5l-0.3,1l5.4,3.1
			c2.2-1.6,3.3-3.7,3.8-4.9c2.3-6.2,6.8-11,12.3-13.2c3.6-1.4,7.2-1.4,9.9,0c5,2.6,7.3,10,5.8,17.5h7.7h1.8l0.4,0.6l0,0l0.5,0.8
			l8,14.3v13.9l18.8,10.9v-127v-1.2l-0.6-0.3L490.9,228.1z"/>
		<path id="XMLID_638_" class="st1" d="M384.4,6C267.8,6,173,100.8,173,217.4s94.8,211.4,211.4,211.4S595.8,334,595.8,217.4
			S500.9,6,384.4,6z M550.4,325.6v6.2L545,335l-45.4,26.4l-1.6,0.9l-3.8,2.2l-1.6-0.9l-3.8-2.2l-15-8.7v29.9h-44.5v-50l2.4-4.3
			l-7.5-4.3c-0.4,0.2-0.8,0.3-1.2,0.5l2.3,4.8l0,0l2.9,5.7l-4.5,13.4l-9.4-3.1l-3.1,9.4l-9.4-3.1l-3.1,9.4l-9.4-3.1l-3.1,9.4
			l-9.4-3.1l-3.1,9.4l-13.4-4.4l-0.1-0.2v8.9c0,9.3-21.1,13.6-40.7,13.6c-19.6,0-40.7-4.2-40.7-13.6v-29.4
			c-4.1,0.4-8.3,0.6-12.5,0.6c-18.5,0-38.4-4-38.4-12.9v-94.3c-0.5-12.1,1.4-23.1,5.7-32.8c1.7-3.9,3.4-6.7,5.3-9.8
			c2.2-3.6,4.4-7.3,6.8-13.1c2.6-6.2,4.4-12.7,5.6-19.4c-1.8-0.6-3.4-1.6-3.4-3.6v-18.1c0-0.9,0.3-1.6,0.8-2.2L236,117.3l-3.7-7.4
			l4.6-13.3l9.4,3.1l3.2-9.3l9.4,3.1l3.2-9.3l9.4,3.1l3.2-9.3l9.4,3.1l3.2-9.3l13.4,4.5l3.4,6.9l20.6,41.7l13.1-13l19.6,19.5
			l19.6-19.5l5.4,5.4l1.6-11.6l0.1-0.8l1.4-10.5c0.8-13.2,6.7-25,16.2-32.5c6.4-5.1,13.6-7.3,19.7-6.2c4.4,0.8,8.7,3.4,12.4,7.4
			c7.4-14.6,21.2-21.8,31-20.1c5.8,1,11.6,5.3,15.8,11.8c6.3,9.7,8.3,22.3,5.4,34.7l-4.9,35.5l13.2-13.1l22.6,22.5l0,42.1l28.2,16.4
			l0.8,0.5l4.6,2.7v0.9v5.4v14.1l0.2,0.1l-0.2,0.3V325.6z"/>
		<polygon id="XMLID_639_" class="st1" points="538.8,225.3 545,215.2 545,199.9 538.7,203.6 		"/>
		<path id="XMLID_640_" class="st1" d="M266.2,306.6c-12.3,0-25.1-1.8-32.4-5.5V336c0.4,1.9,11.1,6.9,32.4,6.9
			c4.7,0,8.8-0.2,12.5-0.6V306C274.6,306.4,270.3,306.6,266.2,306.6z"/>
		<path id="XMLID_643_" class="st1" d="M461.5,322.8h-19.8l-2.1,3.8l-2.6,4.7l-1.6,2.8v42.4h32.5v-27.3V343v-8.8L461.5,322.8z
			 M464.7,372.4h-26.1v-21.9h26.1V372.4z"/>
		<path id="XMLID_644_" class="st1" d="M257.9,161.5c1,0.1,2.2,0.2,3.4,0.2c1,0,2.2,0.1,3.4,0.1c0.5,0,0.9,0,1.4,0c1,0,1.9,0,2.7,0
			c1.2,0,2.3-0.1,3.3-0.1c1.2-0.1,2.3-0.1,3.2-0.2c1.4-0.1,2.4-0.3,3.2-0.4v-14.3c-1.8-0.3-5.4-0.7-10.8-0.8c-0.5,0-1.1,0-1.6,0
			c-0.6,0-1.2,0-1.7,0c-1.2,0-2.3,0-3.3,0.1c-1.6,0.1-2.9,0.2-4.1,0.3c-1.3,0.1-2.4,0.3-3.1,0.4c-0.1,0-0.1,0-0.2,0v6.4v7.9
			C254.7,161.2,256,161.4,257.9,161.5z"/>
		<path id="XMLID_645_" class="st1" d="M266.2,248.6c18.4,0,28.9-3.7,31.7-6c0.3-0.3,0.6-0.5,0.7-0.7l0-0.3c0.1-1.4,0.1-2.8,0.1-4.2
			c0-2.6-0.2-5.2-0.5-7.7c-0.7-6.6-2.4-12.7-4.8-18.2c-0.2-0.5-0.5-1-0.7-1.5c-0.2-0.4-0.4-0.8-0.6-1.2c-1.2-2.3-2.4-4.3-3.6-6.4
			c-2.3-3.8-4.6-7.7-7.2-13.9c-0.9-2.1-1.7-4.3-2.4-6.4c-1.4-4.4-2.6-8.9-3.4-13.5h-3.2H268h-3.3h-3.3h-4.4
			c-1.2,6.9-3.2,13.5-5.8,19.9c-2.6,6.2-4.9,10.1-7.2,13.9c-1.7,2.9-3.4,5.6-4.9,9.1c-3.9,8.9-5.7,19-5.2,30.2l-3,0.1h3
			C234.2,243.5,244.8,248.6,266.2,248.6z"/>
		<path id="XMLID_646_" class="st1" d="M437.8,317.4L437.8,317.4l0.4-0.6h11.2c1.6-6-0.2-11-2.5-12.2c-0.9-0.5-2.7-0.6-5,0.3
			c-3.9,1.5-7.2,5.1-8.9,9.7c-0.6,1.5-1.8,3.8-3.9,5.9l5.2,3l3-5.3L437.8,317.4z"/>
		<polygon id="XMLID_647_" class="st1" points="364.5,364.1 369.8,365.9 373,356.5 382.4,359.6 385.5,350.2 394.9,353.3 398,343.9 
			407.4,347 410.6,337.7 420,340.8 421.8,335.4 420,331.9 362.5,360.2 		"/>
		<polygon id="XMLID_648_" class="st1" points="249.8,107.2 240.7,104.1 238.9,109.4 240.1,111.9 		"/>
		<path id="XMLID_651_" class="st2" d="M550.4,216.3v-14.1v-5.4v-0.9l-4.6-2.7l-0.8-0.5l-28.2-16.4l0-42.1l-22.6-22.5l-13.2,13.1
			l4.9-35.5c2.9-12.4,1-25.1-5.4-34.7c-4.2-6.5-10-10.8-15.8-11.8c-9.7-1.7-23.6,5.5-31,20.1c-3.7-4-8-6.7-12.4-7.4
			c-6.1-1.1-13.3,1.2-19.7,6.2c-9.5,7.5-15.4,19.3-16.2,32.5l-1.4,10.5l-0.1,0.8l-1.6,11.6l-5.4-5.4l-19.6,19.5l-19.6-19.5l-13.1,13
			L304,83.1l-3.4-6.9l-13.4-4.5l-3.2,9.3l-9.4-3.1l-3.2,9.3l-9.4-3.1l-3.2,9.3l-9.4-3.1l-3.2,9.3l-9.4-3.1l-4.6,13.3l3.7,7.4
			l12.5,25.4c-0.5,0.6-0.8,1.3-0.8,2.2V163c0,2,1.5,3.1,3.4,3.6c-1.2,6.7-3,13.2-5.6,19.4c-2.4,5.8-4.6,9.5-6.8,13.1
			c-1.8,3-3.5,5.9-5.3,9.8c-4.3,9.7-6.2,20.7-5.7,32.8V336c0,8.9,19.9,12.9,38.4,12.9c4.2,0,8.4-0.2,12.5-0.6v29.4
			c0,9.3,21.1,13.6,40.7,13.6c19.6,0,40.7-4.2,40.7-13.6v-8.9l0.1,0.2l13.4,4.4l3.1-9.4l9.4,3.1l3.1-9.4l9.4,3.1l3.1-9.4l9.4,3.1
			l3.1-9.4l9.4,3.1l4.5-13.4l-2.9-5.7l0,0l-2.3-4.8c0.4-0.1,0.8-0.3,1.2-0.5l7.5,4.3l-2.4,4.3v50h44.5v-29.9l15,8.7l3.8,2.2l1.6,0.9
			l3.8-2.2l1.6-0.9L545,335l5.4-3.1v-6.2V216.7l0.2-0.3L550.4,216.3z M463.7,48.7c4.1,0.7,8.6,4.2,11.9,9.2
			c5.5,8.3,7.1,19.4,4.5,30.2l-5.8,42.7l-19.1-19l-16.1,16l3.5-25.8c0.5-2.2,0.9-4.3,1.1-6.5c7.7-3.5,15.4-3.4,15.5-3.4l0.1-6
			c-0.4,0-7.4-0.1-15.4,2.9c-0.1-1.7-0.2-3.3-0.4-5c7.8-3.6,15.6-3.6,15.7-3.6l0.1-6c-0.4,0-8.5-0.1-17.1,3.6
			c-1-3.4-2.4-6.6-4.2-9.6C443.5,54.8,455.5,47.2,463.7,48.7z M387.9,120.1l0.4,0.3c8.8-12.1,26.1-12,26.3-12l0.1-6
			c-0.7,0-14.8-0.1-25.6,8.6l0.5-3.8c9.1-10.4,24.8-10.4,25-10.4l0.1-6c-0.7,0-13.3-0.1-23.8,7.2l0.4-3.2l0-0.2
			c0.7-11.5,5.8-21.8,14-28.2c5-3.9,10.6-5.8,15-5c4.1,0.7,8.6,4.2,11.9,9.2c5.5,8.3,7.1,19.4,4.5,30.2l-3.8,27.8L416,111.7
			l-19.6,19.5l-8.8-8.8L387.9,120.1z M337.7,120.2l19.6,19.5l19.6-19.5l19.6,19.5l19.6-19.5l19.6,19.5l19.6-19.5l19.6,19.5
			l19.6-19.5l16.6,16.5l0,36.1L472,150.1l-5.4-3.1l-5.4,3.1l-44,25.6l-2.7,1.6l-2.7,1.6v3.1v3.1v116.6l-84.5-171.3L337.7,120.2z
			 M469.3,180.5v2.8c0,2.7-4.4,5.8-10.8,5.8c-6.4,0-10.8-3.1-10.8-5.8v-2.8c0,0,0.1,0,0.1,0c0.1,0.1,0.3,0.2,0.4,0.2
			c0.3,0.1,0.5,0.3,0.8,0.4c0.2,0.1,0.3,0.1,0.5,0.2c0.3,0.1,0.5,0.2,0.8,0.3c0.2,0.1,0.4,0.1,0.6,0.2c0.3,0.1,0.6,0.2,0.8,0.3
			c0.2,0.1,0.4,0.1,0.6,0.2c0.3,0.1,0.6,0.1,0.9,0.2c0.2,0,0.4,0.1,0.6,0.1c0.3,0.1,0.6,0.1,0.9,0.2c0.2,0,0.4,0.1,0.6,0.1
			c0.3,0,0.7,0.1,1.1,0.1c0.2,0,0.3,0,0.5,0c0.5,0,1.1,0.1,1.6,0.1c0.5,0,1.1,0,1.6-0.1c0.2,0,0.3,0,0.5,0c0.4,0,0.7-0.1,1-0.1
			c0.2,0,0.4-0.1,0.6-0.1c0.3,0,0.6-0.1,0.9-0.2c0.2,0,0.4-0.1,0.6-0.1c0.3-0.1,0.6-0.1,0.9-0.2c0.2-0.1,0.4-0.1,0.6-0.2
			c0.3-0.1,0.6-0.2,0.8-0.3c0.2-0.1,0.4-0.1,0.6-0.2c0.3-0.1,0.5-0.2,0.8-0.3c0.2-0.1,0.4-0.1,0.5-0.2c0.3-0.1,0.5-0.3,0.8-0.4
			C469,180.7,469.1,180.6,469.3,180.5C469.3,180.5,469.3,180.5,469.3,180.5z M467,174.9c-2.1,1.5-5.2,2.3-8.5,2.3
			c-3.3,0-6.3-0.8-8.4-2.3c-0.9-0.6-2.4-1.9-2.4-3.5c0-2.7,4.4-5.8,10.8-5.8c6.4,0,10.8,3.1,10.8,5.8
			C469.3,173,467.9,174.3,467,174.9z M354.1,377.7c0,0.3-1.5,2.5-8.9,4.6c-6.9,1.9-16.1,3-25.9,3s-19-1.1-25.9-3
			c-7.3-2-8.9-4.2-8.9-4.6v-30.2v-6.1v-36.2v-6.1v-14.3c0.1,0,0.1,0.1,0.2,0.1c0.3,0.2,0.7,0.4,1.1,0.5c0.1,0,0.2,0.1,0.3,0.1
			c0.5,0.2,1,0.4,1.5,0.6c0.1,0,0.2,0.1,0.3,0.1c0.4,0.2,0.8,0.3,1.3,0.5c0.2,0.1,0.3,0.1,0.5,0.2c0.4,0.1,0.9,0.3,1.4,0.4
			c0.1,0,0.2,0.1,0.4,0.1c0.6,0.2,1.2,0.3,1.8,0.5c0.2,0,0.3,0.1,0.5,0.1c0.5,0.1,1,0.2,1.4,0.3c0.2,0,0.4,0.1,0.6,0.1
			c0.5,0.1,1.1,0.2,1.6,0.3c0.1,0,0.2,0,0.3,0.1c0.3,0.1,0.6,0.1,0.8,0.1c0.4,0.1,0.8,0.1,1.2,0.2c0.2,0,0.4,0.1,0.5,0.1
			c0.5,0.1,1.1,0.2,1.6,0.2c0.2,0,0.4,0.1,0.6,0.1c0.6,0.1,1.2,0.2,1.9,0.2c0.1,0,0.1,0,0.2,0c0,0,0,0,0.1,0
			c0.7,0.1,1.4,0.2,2.2,0.2c0.2,0,0.4,0,0.6,0.1c0.6,0.1,1.1,0.1,1.7,0.1c0.2,0,0.4,0,0.7,0c0.7,0,1.4,0.1,2.1,0.1
			c0.1,0,0.1,0,0.2,0c0.7,0,1.5,0.1,2.2,0.1c0.2,0,0.4,0,0.6,0c0.6,0,1.1,0,1.7,0c0.2,0,0.4,0,0.6,0c0.7,0,1.5,0,2.2,0s1.5,0,2.2,0
			c0,0,0,0,0,0c0.2,0,0.4,0,0.6,0c0.6,0,1.1,0,1.7,0c0.2,0,0.4,0,0.6,0c0.1,0,0.2,0,0.4,0c0.6,0,1.2-0.1,1.9-0.1c0.1,0,0.1,0,0.2,0
			c0.4,0,0.8-0.1,1.2-0.1c0.3,0,0.6,0,0.8-0.1c0.2,0,0.4,0,0.7,0c0.6,0,1.1-0.1,1.7-0.1c0.2,0,0.4,0,0.6-0.1c0.1,0,0.2,0,0.3,0
			c0.6-0.1,1.2-0.1,1.9-0.2c0.1,0,0.2,0,0.3,0c0.3,0,0.7-0.1,1-0.1c0.3,0,0.6-0.1,0.8-0.1c0.2,0,0.4-0.1,0.6-0.1
			c0.5-0.1,1.1-0.2,1.6-0.2c0,0,0.1,0,0.1,0c0.2,0,0.3,0,0.5-0.1c0.7-0.1,1.4-0.2,2-0.4c0.1,0,0.2,0,0.3-0.1
			c0.6-0.1,1.1-0.2,1.6-0.3c0.2,0,0.4-0.1,0.6-0.1c0.5-0.1,1-0.2,1.5-0.3c0.2,0,0.3-0.1,0.5-0.1c0.6-0.2,1.2-0.3,1.8-0.5
			c0.1,0,0.2-0.1,0.3-0.1c0.5-0.1,0.9-0.3,1.4-0.4c0.2-0.1,0.3-0.1,0.5-0.2c0.4-0.1,0.9-0.3,1.3-0.5c0.1,0,0.2-0.1,0.3-0.1
			c0.5-0.2,1-0.4,1.5-0.6c0.1,0,0.2-0.1,0.3-0.1c0.4-0.2,0.7-0.3,1.1-0.5c0.1,0,0.1-0.1,0.2-0.1v7.1c-0.2,0.4-0.3,0.8-0.3,1.3
			c0,0.3-1.5,2.5-8.9,4.6c-0.7,0.2-1.3,0.3-2,0.5c-1,0.2-2,0.5-3,0.7c-1,0.2-2,0.4-3.1,0.5c-1.3,0.2-2.6,0.4-3.9,0.5
			c-1,0.1-2.1,0.2-3.2,0.3c-1.1,0.1-2.1,0.2-3.2,0.2c-2.4,0.1-4.9,0.2-7.4,0.2c-1.6,0-3.3,0-4.8-0.1c-1.7,0-3,1.2-3.1,2.9
			c-0.1,1.7,1.2,3,2.9,3.1c1.7,0.1,3.4,0.1,5.1,0.1c3.4,0,6.9-0.1,10.2-0.4c1.1-0.1,2.1-0.2,3.2-0.3c1.1-0.1,2.1-0.2,3.2-0.4
			c1.3-0.2,2.6-0.4,3.9-0.6c1-0.2,2.1-0.4,3.1-0.6c1-0.2,2-0.5,3-0.7c3.3-0.9,6.2-1.9,8.5-3.2v1.9c-0.2,0.4-0.3,0.8-0.3,1.3
			c0,0.3-1.2,2-6.3,3.8c-0.8,0.3-1.6,0.5-2.5,0.8c-0.1,0-0.3,0.1-0.4,0.1c-1,0.3-2,0.5-3,0.7c-1.2,0.3-2.5,0.5-3.8,0.7
			c-1,0.2-2.1,0.3-3.1,0.5c-1,0.1-2.1,0.3-3.2,0.4c-3.9,0.4-8.1,0.6-12.4,0.6c-1.6,0-3.2,0-4.8-0.1c-1.7,0-3,1.2-3.1,2.9
			c-0.1,1.7,1.2,3,2.9,3.1c1.7,0.1,3.4,0.1,5.1,0.1c5.1,0,10.3-0.3,15.2-0.9c1.1-0.1,2.1-0.3,3.1-0.4c1-0.2,2.1-0.3,3.1-0.5
			c1.3-0.2,2.6-0.5,3.8-0.8c1-0.2,2-0.5,3-0.8c1-0.3,2-0.6,2.9-1c1.5-0.5,2.8-1.1,4-1.8v9.8v6.8v6.8v8.5v6.8v0
			c-0.2,0.4-0.3,0.8-0.3,1.3c0,0.2-0.4,0.8-1.6,1.6c-1.3,0.9-3.5,1.9-7.3,3c-6.9,1.9-16.1,3-25.9,3c-1.6,0-3.3,0-4.8-0.1
			c-1.7,0-3,1.2-3.1,2.9s1.2,3,2.9,3.1s3.4,0.1,5.1,0.1c13.4,0,27.4-2,35-6.2v1.9c-0.2,0.4-0.3,0.8-0.3,1.3c0,0.3-1.5,2.5-8.9,4.6
			c-6.9,1.9-16.1,3-25.9,3c-1.6,0-3.2,0-4.8-0.1c-1.7,0-3,1.2-3.1,2.9c-0.1,1.7,1.2,3,2.9,3.1c1.7,0.1,3.4,0.1,5,0.1
			c13.4,0,27.4-2,35-6.2V377.7z M304.6,240.4c0.1-2.2,0-4.3-0.1-6.5l14.7,29.8c-1.4,0-2.8,0-4.2,0.1l-10.4-21.1v-1.1L304.6,240.4z
			 M264.8,140l-4.8-9.7c-2.2-4.5-0.4-9.9,4.1-12.1l23.8-11.7c4.5-2.2,9.9-0.4,12.1,4.1l15.1,30.7l6,12.2l78.3,158.7l-4.6,13.6
			l0.7,0.2l-23.2,11.5c-4.4,2.2-9.9,0.4-12.1-4.1l0-0.1v-55.9c0-8.3-16.7-12.6-34.2-13.4L298,207.2c-0.2-0.4-0.4-0.9-0.6-1.3
			l-13-26.3c-1.4-4.2-2.5-8.6-3.2-13c1.9-0.6,3.4-1.6,3.4-3.6v-18.1c0-3.4-4.3-4-7.1-4.3c-3-0.4-7-0.6-11.3-0.6
			C265.7,140,265.3,140,264.8,140z M254.2,140.6l-11.5-23.3L300.2,89l19.8,40.2l2.8,5.7L409.2,310l-5.1-1.7l-83.1-168.5l-3.9-7.8
			l-11.9-24.1c-1.8-3.6-4.8-6.3-8.6-7.6c-3.8-1.3-7.9-1-11.5,0.7l-23.8,11.7c-7.4,3.7-10.5,12.7-6.8,20.1l3.6,7.3
			c-1.2,0.1-2.3,0.2-3.4,0.3C254.7,140.6,254.5,140.6,254.2,140.6z M417.4,326.5l-3.8,1.9l1.1-3.2c0.7,0.1,1.4,0.2,2.2,0.2
			L417.4,326.5z M408.7,324l-2.8-0.9l-2.8-1l-0.7-0.2l1.6-4.8l0.8-2.3l2.1,0.7l4.2,1.4L408.7,324z M357.1,277.2L357.1,277.2
			L357.1,277.2z M318.7,284.8c-4.9,0-9.7-0.3-14.1-0.9c-2.1-0.3-4.1-0.6-6-0.9c-1.8-0.3-3.5-0.7-5.1-1.2c-7.3-2-8.9-4.2-8.9-4.6
			s1.5-2.5,8.9-4.6c1.6-0.4,3.3-0.8,5.1-1.2c1.9-0.4,3.9-0.7,6-0.9c2.2-0.3,4.4-0.5,6.7-0.6c1.1-0.1,2.2-0.1,3.3-0.2
			c1.1,0,2.2-0.1,3.3-0.1c0.5,0,1,0,1.5,0c0.9,0,1.8,0,2.8,0c1.1,0,2.3,0.1,3.4,0.1c1.2,0.1,2.3,0.1,3.4,0.2
			c6.1,0.5,11.7,1.3,16.3,2.6c7.3,2,8.9,4.2,8.9,4.6s-1.5,2.5-8.9,4.6c-2.8,0.8-6,1.4-9.5,1.9c-1,0.1-2.1,0.3-3.2,0.4
			c-1,0.1-2.1,0.2-3.2,0.3c-1.3,0.1-2.7,0.2-4.1,0.2c-1.1,0-2.2,0.1-3.3,0.1c-0.9,0-1.7,0-2.6,0
			C319.1,284.8,318.9,284.8,318.7,284.8z M281.6,277.2L281.6,277.2L281.6,277.2z M360.1,341.8c1,0.7,2.1,1.2,3.3,1.6
			c1.6,0.5,3.2,0.8,4.9,0.8c2.3,0,4.5-0.5,6.6-1.5l23.8-11.7c1.5-0.7,2.7-1.6,3.8-2.7l6.7,2.3l-49,24.2V341.8z M308.5,264.1
			c-1.3,0.1-2.6,0.2-3.9,0.4v-8.2L308.5,264.1z M298.6,265.4c-11.3,2-20,5.9-20,11.9V300c-3.7,0.4-7.8,0.6-12.5,0.6
			c-21.4,0-32-5-32.4-6.9V249c7.3,3.8,20.2,5.5,32.4,5.5c12.3,0,25.1-1.8,32.4-5.5L298.6,265.4z M291,79.3l5.4,1.8l1.2,2.5l-9.7,4.8
			L291,79.3z M278.4,85.5l9.1,3.1l-12.2,6L278.4,85.5z M265.8,91.7l9.1,3.1l-12.2,6L265.8,91.7z M253.3,97.9l9.1,3.1l-12.2,6
			L253.3,97.9z M240.7,104.1l9.1,3.1l-9.7,4.8l-1.2-2.5L240.7,104.1z M253.7,146.8c0.1,0,0.1,0,0.2,0c0.8-0.1,1.8-0.3,3.1-0.4
			c1.1-0.1,2.5-0.2,4.1-0.3c1,0,2.1-0.1,3.3-0.1c0.6,0,1.1,0,1.7,0c0.6,0,1.1,0,1.6,0c5.4,0.1,9,0.5,10.8,0.8V161
			c-0.7,0.1-1.8,0.3-3.2,0.4c-0.9,0.1-2,0.2-3.2,0.2c-1,0.1-2.1,0.1-3.3,0.1c-0.9,0-1.8,0-2.7,0c-0.5,0-1,0-1.4,0
			c-1.2,0-2.4,0-3.4-0.1c-1.3-0.1-2.4-0.1-3.4-0.2c-1.8-0.2-3.2-0.3-4.1-0.5v-7.9V146.8z M233.7,241.5c-0.5-11.2,1.3-21.3,5.2-30.2
			c1.6-3.5,3.2-6.2,4.9-9.1c2.3-3.8,4.6-7.7,7.2-13.9c2.6-6.4,4.6-13,5.8-19.9h4.4h3.3h3.3h4.2h3.2c0.8,4.6,2,9.1,3.4,13.5
			c0.7,2.2,1.5,4.3,2.4,6.4c2.6,6.2,4.9,10.1,7.2,13.9c1.3,2.1,2.5,4.1,3.6,6.4c0.2,0.4,0.4,0.8,0.6,1.2c0.2,0.5,0.5,1,0.7,1.5
			c2.5,5.6,4.1,11.7,4.8,18.2c0.3,2.5,0.4,5.1,0.5,7.7c0,1.4,0,2.8-0.1,4.2l0,0.3c-0.1,0.2-0.3,0.5-0.7,0.7c-2.8,2.3-13.2,6-31.7,6
			c-21.4,0-32-5-32.4-6.9h-3L233.7,241.5z M266.2,342.9c-21.4,0-32-5-32.4-6.9v-34.9c7.3,3.8,20.2,5.5,32.4,5.5
			c4.2,0,8.4-0.2,12.5-0.6v36.2C275,342.6,270.8,342.9,266.2,342.9z M421.8,335.4l-1.8,5.4l-9.4-3.1l-3.1,9.4l-9.4-3.1l-3.1,9.4
			l-9.4-3.1l-3.1,9.4l-9.4-3.1l-3.1,9.4l-5.4-1.8l-2-3.9l57.4-28.3L421.8,335.4z M429.2,320.6c2.1-2.1,3.3-4.4,3.9-5.9
			c1.7-4.6,5-8.2,8.9-9.7c2.3-0.9,4.1-0.7,5-0.3c2.3,1.2,4,6.2,2.5,12.2h-11.2l-0.4,0.6l0,0l-0.5,0.8l-3,5.3L429.2,320.6z
			 M467.8,349.2v27.3h-32.5v-42.4l1.6-2.8l2.6-4.7l2.1-3.8h19.8l6.3,11.3v8.8V349.2z M463.3,319.8L463.3,319.8L463.3,319.8z
			 M492.7,230.3v127l-18.8-10.9v-13.9l-8-14.3l-0.5-0.8l0,0l-0.4-0.6h-1.8h-7.7c1.4-7.6-0.8-14.9-5.8-17.5c-2.7-1.4-6.3-1.4-9.9,0
			c-5.5,2.1-10,7-12.3,13.2c-0.5,1.2-1.6,3.3-3.8,4.9l-5.4-3.1l0.3-1l-1.4-0.5l-0.1-0.1V185.1l71.1,41.5l2.5,1.5l1.2,0.7l0.6,0.3
			V230.3z M493.7,223.5l-1-0.6l-72.8-42.5l23-13.4c-0.7,1.3-1.2,2.8-1.2,4.4v11.9c0,6.6,7.4,11.8,16.8,11.8
			c9.4,0,16.8-5.2,16.8-11.8v-11.9c0-6.6-7.4-11.8-16.8-11.8c-1.1,0-2.2,0.1-3.2,0.2l11.3-6.5l73.8,43.1l-42.4,24.6L493.7,223.5z
			 M533.4,232.7l-1.2,0.6l0-26l1.1-0.6L533.4,232.7z M526.8,232.7l-26-7.1l26-15.1L526.8,232.7z M545,328.8l-46.9,27.3V232.3v-1.9
			l6.7,1.8l19.3,5.3l2.8,0.8l4.9,1.3l0.4-0.2l0,0l0,0l1.2-0.6l2.3-1.2l2.6-1.3l0.5-0.7l2.6-4.1l3.6-5.9V328.8z M545,215.2l-6.2,10.1
			l-0.1-21.7l6.3-3.7V215.2z"/>
		<line id="XMLID_687_" class="st3" x1="463.3" y1="319.8" x2="463.3" y2="319.8"/>
		<rect id="XMLID_688_" x="438.5" y="350.6" class="st2" width="26.1" height="21.9"/>
		<path id="XMLID_691_" class="st2" d="M538.1,63.7C497,22.6,442.4,0,384.4,0c-58.1,0-112.7,22.6-153.7,63.7S167,159.3,167,217.4
			s22.6,112.7,63.7,153.7c41.1,41.1,95.7,63.7,153.7,63.7c58.1,0,112.7-22.6,153.7-63.7c41.1-41.1,63.7-95.7,63.7-153.7
			S579.2,104.7,538.1,63.7z M384.4,428.8C267.8,428.8,173,334,173,217.4S267.8,6,384.4,6s211.4,94.8,211.4,211.4
			S500.9,428.8,384.4,428.8z"/>
		<line id="XMLID_692_" class="st4" x1="281.6" y1="277.2" x2="281.6" y2="277.2"/>
		<path id="XMLID_693_" class="st5" d="M329,290.5c-0.3,0-0.6,0-0.8,0.1c-0.4,0-0.8,0.1-1.2,0.1c0.4,0,0.8,0,1.2-0.1
			C328.5,290.5,328.7,290.5,329,290.5z"/>
		<path id="XMLID_694_" class="st5" d="M326.8,290.6c-0.6,0-1.2,0.1-1.9,0.1c-0.1,0-0.2,0-0.4,0c0.1,0,0.2,0,0.4,0
			C325.6,290.7,326.2,290.6,326.8,290.6z"/>
		<line id="XMLID_695_" class="st4" x1="357.1" y1="277.2" x2="357.1" y2="277.2"/>
		<path id="XMLID_696_" class="st5" d="M334.1,290c-0.6,0.1-1.2,0.1-1.9,0.2c-0.1,0-0.2,0-0.3,0c0.1,0,0.2,0,0.3,0
			C332.9,290.1,333.5,290.1,334.1,290z"/>
		<path id="XMLID_697_" class="st5" d="M336.2,289.7c-0.3,0-0.6,0.1-0.8,0.1c-0.3,0-0.7,0.1-1,0.1c0.3,0,0.7-0.1,1-0.1
			C335.7,289.8,336,289.8,336.2,289.7z"/>
		<path id="XMLID_698_" class="st5" d="M299.8,289.3c-0.4-0.1-0.8-0.1-1.2-0.2c-0.3,0-0.6-0.1-0.8-0.1c0.3,0.1,0.6,0.1,0.8,0.2
			C299,289.2,299.4,289.3,299.8,289.3z"/>
		<path id="XMLID_699_" class="st2" d="M297.7,305c0.3,0.1,0.6,0.1,0.9,0.2c1.9,0.3,3.9,0.6,6,0.9c0.2,0,0.3,0,0.5,0.1
			c0.1,0,0.2,0,0.3,0c1.5,0,2.8-1.1,3-2.7c0.2-1.6-1-3.1-2.7-3.3c-0.4,0-0.7-0.1-1.1-0.1c-2-0.2-4-0.5-5.8-0.9
			c-1.6-0.3-3.2,0.8-3.5,2.4c-0.1,0.4-0.1,0.7,0,1C295.5,303.7,296.5,304.7,297.7,305z"/>
		<path id="XMLID_700_" class="st2" d="M305.7,310.6c-0.4,0-0.7-0.1-1.1-0.1c-0.9-0.1-1.7-0.2-2.5-0.3c-1.6-0.2-3.2,0.9-3.4,2.5
			c-0.2,1.6,0.9,3.2,2.5,3.4c1.1,0.2,2.3,0.3,3.4,0.4c0.2,0,0.3,0,0.5,0.1c0.1,0,0.2,0,0.3,0c1.5,0,2.8-1.1,3-2.7
			C308.6,312.3,307.4,310.8,305.7,310.6z"/>
		<path id="XMLID_701_" class="st2" d="M306.5,358.1c-2.7-0.3-5.3-0.6-7.7-1.1c-1.6-0.3-3.2,0.8-3.5,2.4c-0.3,1.6,0.8,3.2,2.4,3.5
			c2.6,0.5,5.3,0.9,8.2,1.2c0.1,0,0.2,0,0.3,0c1.5,0,2.8-1.2,3-2.7C309.4,359.8,308.2,358.3,306.5,358.1z"/>
		<path id="XMLID_702_" class="st2" d="M306.4,368.7c-1.5-0.2-3-0.3-4.3-0.5c-1.6-0.2-3.2,0.9-3.4,2.5c-0.2,1.6,0.9,3.2,2.5,3.4
			c1.5,0.2,3,0.4,4.6,0.6c0.1,0,0.2,0,0.3,0c1.5,0,2.8-1.1,3-2.7C309.2,370.3,308,368.8,306.4,368.7z"/>
	</g>
</g>
</svg>
