<svg xmlns="http://www.w3.org/2000/svg" xmlns:xlink="http://www.w3.org/1999/xlink" xml:space="preserve" version="1.1" style="shape-rendering:geometricPrecision;text-rendering:geometricPrecision;image-rendering:optimizeQuality;" viewBox="0 0 403 400" x="0px" y="0px" fill-rule="evenodd" clip-rule="evenodd"><defs><style type="text/css">
   
    .fil0 {fill:black;fill-rule:nonzero}
   
  </style></defs><g><path class="fil0" d="M27 44c-15,0 -27,12 -27,27l0 222c0,15 12,27 27,27l349 0c15,0 27,-12 27,-27l0 -222c0,-15 -12,-27 -27,-27l-100 0 -22 -40c-1,-3 -3,-4 -6,-4l-93 0c-2,0 -5,1 -6,4l-22 40 -100 0zm175 32c58,0 106,48 106,106 0,58 -48,106 -106,106 -59,0 -106,-48 -106,-106 0,-58 47,-106 106,-106z"/><path class="fil0" d="M202 100c-46,0 -82,37 -82,82 0,45 36,82 82,82 45,0 82,-37 82,-82 0,-45 -37,-82 -82,-82zm0 19c11,0 11,17 0,17 -26,0 -46,21 -46,46 0,11 -17,11 -17,0 0,-35 28,-63 63,-63z"/></g><text x="0" y="335" fill="#000000" font-size="5px" font-weight="bold" font-family="'Helvetica Neue', Helvetica, Arial-Unicode, Arial, Sans-serif">Created by Humantech</text><text x="0" y="340" fill="#000000" font-size="5px" font-weight="bold" font-family="'Helvetica Neue', Helvetica, Arial-Unicode, Arial, Sans-serif">from the Noun Project</text></svg>